<svg xmlns="http://www.w3.org/2000/svg" width="748" height="679" viewBox="325 116 748 679"><g transform="translate(535.89,365.40)" fill="#eef2f6"><path d="M11.42578125 -7.16015625V-108.1640625Q11.42578125 -115.01953125 17.21484375 -115.01953125Q23.00390625 -115.01953125 23.00390625 -107.935546875V-7.3125Q23.00390625 0.0 17.21484375 0.0Q11.42578125 0.0 11.42578125 -7.16015625Z"/><path d="M67.485234375 -40.142578125Q67.485234375 -40.142578125 46.385625 -71.6015625Q45.166875 -73.4296875 45.166875 -75.029296875Q45.166875 -80.513671875 51.10828125 -80.513671875Q53.698125 -80.513671875 55.52625 -77.771484375L73.883671875 -50.197265625L92.317265625 -77.771484375Q94.06921875 -80.28515625 97.039921875 -80.28515625Q102.1434375 -80.28515625 102.1434375 -75.486328125Q102.1434375 -72.744140625 101.000859375 -70.916015625Q101.000859375 -70.916015625 80.35828125 -40.21875Q80.35828125 -40.21875 100.46765625 -10.20703125Q102.371953125 -7.236328125 102.371953125 -5.484375Q102.371953125 0.0 97.11609375 0.0Q93.916875 0.0 92.164921875 -2.666015625Q92.164921875 -2.666015625 74.036015625 -30.392578125Q74.036015625 -30.392578125 55.754765625 -2.970703125Q53.774296875 0.0 50.9559375 0.0Q45.166875 0.0 45.166875 -5.1796875Q45.166875 -7.236328125 46.53796875 -9.369140625Q46.53796875 -9.369140625 67.485234375 -40.142578125Z"/><path d="M135.7321875 -10.96875Q135.7321875 -10.96875 162.163828125 -10.96875Q172.370859375 -10.96875 177.4362890625 -16.2626953125Q182.50171875 -21.556640625 182.50171875 -29.25V-86.455078125Q182.50171875 -93.234375 177.550546875 -98.642578125Q172.599375 -104.05078125 164.448984375 -104.05078125H135.7321875Q135.7321875 -104.05078125 135.7321875 -10.96875ZM124.53492187500001 -108.7734375Q124.53492187500001 -115.01953125 130.8571875 -115.01953125H166.581796875Q177.093515625 -115.01953125 185.2819921875 -106.79296875Q193.47046875 -98.56640625 193.47046875 -88.130859375V-26.66015625Q193.47046875 -16.224609375 185.24390625 -8.1123046875Q177.01734375 0.0 167.648203125 0.0H129.6384375Q124.53492187500001 0.0 124.53492187500001 -6.779296875Z"/><path d="M230.71546875 -58.119140625V-6.55078125Q230.71546875 -0.3046875 225.002578125 -0.3046875Q219.44203125 -0.3046875 219.44203125 -6.626953125Q219.44203125 -6.626953125 219.44203125 -110.068359375Q219.44203125 -115.400390625 225.3834375 -115.400390625Q225.3834375 -115.400390625 270.781875 -115.400390625Q276.799453125 -115.400390625 276.799453125 -109.916015625Q276.799453125 -104.431640625 270.858046875 -104.431640625H230.791640625V-69.240234375H270.858046875Q276.799453125 -69.240234375 276.799453125 -63.6796875Q276.799453125 -58.119140625 270.781875 -58.119140625Z"/></g><g transform="translate(464.26,468.58)" fill="#eef2f6"><path d="M11.640625 -53.359375Q11.640625 -53.359375 11.640625 -29.4921875H24.609375Q28.5546875 -29.4921875 32.03125 -32.96875Q35.46875 -36.40625 35.46875 -41.484375Q35.46875 -46.5625 32.01171875 -49.9609375Q28.5546875 -53.359375 22.96875 -53.359375ZM11.640625 -3.4375Q11.640625 -0.1953125 8.75 -0.1953125Q5.859375 -0.1953125 5.859375 -3.515625V-55.8984375Q5.859375 -58.984375 9.0625 -58.984375H24.1796875Q31.484375 -58.984375 36.71875 -53.125Q41.09375 -48.2421875 41.09375 -42.421875Q41.09375 -35.3125 38.046875 -31.25Q32.3828125 -23.7109375 24.609375 -23.7109375H11.640625Z"/><path d="M82.459375 -29.6875H58.2015625V-3.0078125Q58.2015625 0.0 55.33046875 0.0Q52.459375 0.0 52.459375 -2.96875V-55.6640625Q52.459375 -58.984375 55.33046875 -58.984375Q58.2015625 -58.984375 58.2015625 -55.6640625V-35.3125H82.459375V-55.8984375Q82.459375 -58.828125 85.2328125 -58.828125Q88.00625 -58.828125 88.00625 -55.9375V-3.125Q88.00625 0.0 85.2328125 0.0Q82.459375 0.0 82.459375 -3.046875Z"/><path d="M107.10625 -53.359375Q107.10625 -53.359375 107.10625 -29.4921875H120.075Q124.0203125 -29.4921875 127.496875 -32.96875Q130.934375 -36.40625 130.934375 -41.484375Q130.934375 -46.5625 127.47734374999999 -49.9609375Q124.0203125 -53.359375 118.434375 -53.359375ZM107.10625 -3.4375Q107.10625 -0.1953125 104.215625 -0.1953125Q101.325 -0.1953125 101.325 -3.515625V-55.8984375Q101.325 -58.984375 104.528125 -58.984375H119.6453125Q126.95 -58.984375 132.184375 -53.125Q136.559375 -48.2421875 136.559375 -42.421875Q136.559375 -35.3125 133.5125 -31.25Q127.8484375 -23.7109375 120.075 -23.7109375H107.10625Z"/><path d="M198.74375 -59.1796875Q198.74375 -59.1796875 210.696875 -59.1796875Q213.5875 -59.1796875 213.5875 -56.25Q213.5875 -53.28125 210.4625 -53.28125H198.7046875Q195.4234375 -53.28125 192.3375 -50.4296875Q189.99375 -48.2421875 189.99375 -44.5703125V-14.7265625Q189.99375 -11.0546875 192.4546875 -8.3984375Q195.0328125 -5.6640625 197.80625 -5.6640625H210.93125Q213.74375 -5.6640625 213.74375 -2.8125Q213.74375 -0.1171875 210.8921875 -0.1171875H197.571875Q192.18125 -0.1171875 187.49375 -5.3125Q184.290625 -8.8671875 184.290625 -14.4140625V-45.0Q184.290625 -50.859375 188.9 -55.1953125Q193.11875 -59.1796875 198.74375 -59.1796875Z"/><path d="M230.8515625 -16.5234375Q230.8515625 -12.3046875 234.7578125 -8.7890625Q238.15625 -5.78125 242.375 -5.78125Q247.296875 -5.78125 250.3828125 -8.5546875Q254.71875 -12.4609375 254.71875 -17.65625V-41.40625Q254.71875 -47.109375 250.6171875 -50.4296875Q246.9453125 -53.3984375 242.3359375 -53.3984375Q238.46875 -53.3984375 234.7578125 -50.390625Q230.8515625 -47.2265625 230.8515625 -41.5625ZM225.109375 -42.5Q225.109375 -48.984375 230.2265625 -54.0625Q235.3828125 -59.1796875 242.8046875 -59.1796875Q249.875 -59.1796875 254.9921875 -54.1015625Q260.3828125 -48.75 260.3828125 -41.6796875V-17.8125Q260.3828125 -10.15625 255.03125 -4.9609375Q249.9140625 0.0 242.53125 0.0Q235.578125 0.0 230.3828125 -4.9609375Q225.109375 -10.0390625 225.109375 -16.71875Z"/><path d="M279.44375 -5.625Q279.44375 -5.625 292.9984375 -5.625Q298.2328125 -5.625 300.83046875 -8.33984375Q303.428125 -11.0546875 303.428125 -15.0V-44.3359375Q303.428125 -47.8125 300.8890625 -50.5859375Q298.35 -53.359375 294.1703125 -53.359375H279.44375Q279.44375 -53.359375 279.44375 -5.625ZM273.7015625 -55.78125Q273.7015625 -58.984375 276.94375 -58.984375H295.2640625Q300.6546875 -58.984375 304.85390625 -54.765625Q309.053125 -50.546875 309.053125 -45.1953125V-13.671875Q309.053125 -8.3203125 304.834375 -4.16015625Q300.615625 0.0 295.8109375 0.0H276.31875Q273.7015625 0.0 273.7015625 -3.4765625Z"/><path d="M322.37187500000005 -3.671875V-55.46875Q322.37187500000005 -58.984375 325.34062500000005 -58.984375Q328.30937500000005 -58.984375 328.30937500000005 -55.3515625V-3.75Q328.30937500000005 0.0 325.34062500000005 0.0Q322.37187500000005 0.0 322.37187500000005 -3.671875Z"/><path d="M371.47187500000007 -13.9453125V-56.2109375Q371.47187500000007 -59.1796875 374.16718750000007 -59.1796875Q376.86250000000007 -59.1796875 376.86250000000007 -56.328125V-3.4765625Q376.86250000000007 -0.234375 374.28437500000007 -0.234375Q372.48750000000007 -0.234375 371.31562500000007 -2.34375L347.25312500000007 -45.2734375V-3.4765625Q347.25312500000007 -0.3515625 344.28437500000007 -0.3515625Q341.62812500000007 -0.3515625 341.62812500000007 -3.5546875V-55.703125Q341.62812500000007 -59.1796875 344.44062500000007 -59.1796875Q346.27656250000007 -59.1796875 347.29218750000007 -57.3828125Z"/><path d="M419.9078125000001 -5.8203125V-29.8046875H413.7750000000001Q411.0015625000001 -29.8046875 411.0015625000001 -32.578125Q411.0015625000001 -35.390625 413.6578125000001 -35.390625H422.9937500000001Q425.4937500000001 -35.390625 425.4937500000001 -31.6796875V-3.59375Q425.4937500000001 -0.1953125 422.2515625000001 -0.1953125H403.2671875000001Q399.0093750000001 -0.1953125 394.5953125000001 -4.04296875Q390.1812500000001 -7.890625 390.1812500000001 -16.25V-45.3515625Q390.1812500000001 -50.859375 394.6539062500001 -55.01953125Q399.1265625000001 -59.1796875 404.9078125000001 -59.1796875H422.1734375000001Q425.6109375000001 -59.1796875 425.6109375000001 -56.3671875Q425.6109375000001 -53.5546875 422.2125000000001 -53.5546875H405.5328125000001Q401.2359375000001 -53.5546875 398.5015625000001 -50.7421875Q395.7671875000001 -47.9296875 395.7671875000001 -43.90625V-15.625Q395.7671875000001 -11.2890625 398.3062500000001 -8.5546875Q400.8453125000001 -5.8203125 403.9703125000001 -5.8203125Z"/></g><g transform="translate(490.04,571.76)" fill="#eef2f6"><path d="M3.90625 -44.1796875Q3.90625 -50.2734375 8.125 -54.62890625Q12.34375 -58.984375 18.3203125 -58.984375Q26.6015625 -58.984375 33.359375 -56.4453125Q36.171875 -55.390625 36.171875 -53.203125Q36.171875 -50.5078125 33.4765625 -50.5078125Q32.34375 -50.5078125 29.921875 -51.4453125Q24.8828125 -53.3984375 19.1796875 -53.3984375Q14.0234375 -53.3984375 11.328125 -49.7265625Q9.6875 -47.5 9.6875 -43.8671875Q9.6875 -38.90625 15.7421875 -35.8203125L30.0 -28.59375Q39.2578125 -23.828125 39.2578125 -14.765625Q39.2578125 -7.96875 34.4140625 -3.7890625Q30.0390625 0.0 23.90625 0.0Q14.609375 0.0 6.09375 -5.5859375Q3.90625 -7.03125 3.90625 -8.7890625Q3.90625 -11.484375 6.796875 -11.484375Q7.8515625 -11.484375 9.609375 -10.234375Q15.78125 -5.8203125 24.4140625 -5.8203125Q26.953125 -5.8203125 28.984375 -6.875Q33.4765625 -9.21875 33.4765625 -14.9609375Q33.4765625 -20.390625 27.578125 -23.359375L12.2265625 -31.1328125Q3.90625 -35.3515625 3.90625 -44.1796875Z"/><path d="M48.6703125 -56.484375Q48.6703125 -59.1796875 52.1078125 -59.1796875H81.053125Q83.865625 -59.1796875 83.865625 -56.3671875Q83.865625 -53.515625 81.13125 -53.515625H69.1390625V-3.0859375Q69.1390625 0.0 66.2875 0.0Q63.4359375 0.0 63.4359375 -3.0078125V-53.515625H52.0296875Q48.6703125 -53.515625 48.6703125 -56.484375Z"/><path d="M111.403125 -56.8359375Q112.10625 -58.984375 114.1375 -58.984375Q116.090625 -58.984375 116.79375 -56.8359375L134.2546875 -4.3359375Q134.60625 -3.28125 134.60625 -2.6171875Q134.60625 -0.3125 131.79375 0.0Q129.7234375 0.0 128.8640625 -2.578125Q128.8640625 -2.578125 124.8796875 -14.921875H103.2390625L98.98125 -2.265625Q98.1609375 0.1171875 96.325 0.1171875Q93.278125 0.1171875 93.278125 -2.734375Q93.278125 -3.125 94.1375 -5.6640625ZM113.98125 -47.109375 104.996875 -20.4296875H123.0046875Z"/><path d="M175.815625 -13.9453125V-56.2109375Q175.815625 -59.1796875 178.5109375 -59.1796875Q181.20625 -59.1796875 181.20625 -56.328125V-3.4765625Q181.20625 -0.234375 178.628125 -0.234375Q176.83125 -0.234375 175.659375 -2.34375L151.596875 -45.2734375V-3.4765625Q151.596875 -0.3515625 148.628125 -0.3515625Q145.971875 -0.3515625 145.971875 -3.5546875V-55.703125Q145.971875 -59.1796875 148.784375 -59.1796875Q150.6203125 -59.1796875 151.6359375 -57.3828125Z"/><path d="M200.2671875 -5.625Q200.2671875 -5.625 213.821875 -5.625Q219.05625 -5.625 221.65390625 -8.33984375Q224.2515625 -11.0546875 224.2515625 -15.0V-44.3359375Q224.2515625 -47.8125 221.7125 -50.5859375Q219.1734375 -53.359375 214.99375 -53.359375H200.2671875Q200.2671875 -53.359375 200.2671875 -5.625ZM194.525 -55.78125Q194.525 -58.984375 197.7671875 -58.984375H216.0875Q221.478125 -58.984375 225.67734375 -54.765625Q229.8765625 -50.546875 229.8765625 -45.1953125V-13.671875Q229.8765625 -8.3203125 225.6578125 -4.16015625Q221.4390625 0.0 216.634375 0.0H197.1421875Q194.525 0.0 194.525 -3.4765625Z"/><path d="M259.3671875 -56.8359375Q260.0703125 -58.984375 262.1015625 -58.984375Q264.0546875 -58.984375 264.7578125 -56.8359375L282.21875 -4.3359375Q282.5703125 -3.28125 282.5703125 -2.6171875Q282.5703125 -0.3125 279.7578125 0.0Q277.6875 0.0 276.828125 -2.578125Q276.828125 -2.578125 272.84375 -14.921875H251.203125L246.9453125 -2.265625Q246.125 0.1171875 244.2890625 0.1171875Q241.2421875 0.1171875 241.2421875 -2.734375Q241.2421875 -3.125 242.1015625 -5.6640625ZM261.9453125 -47.109375 252.9609375 -20.4296875H270.96875Z"/><path d="M299.678125 -29.3359375Q299.678125 -29.3359375 312.4515625 -29.3359375Q316.5140625 -29.3359375 320.5765625 -33.203125Q323.740625 -36.2109375 323.740625 -41.6796875Q323.740625 -45.8203125 320.303125 -49.375Q316.6703125 -53.1640625 312.4125 -53.1640625H299.678125ZM296.9828125 -58.75H312.4125Q319.5609375 -58.75 325.4203125 -52.34375Q329.2875 -48.125 329.2875 -42.6953125Q329.2875 -37.4609375 327.334375 -32.8515625Q325.1859375 -27.8125 318.4671875 -25.0L328.6625 -4.9609375Q329.2484375 -3.75 329.2484375 -2.96875Q329.2484375 0.0 326.3578125 0.0Q324.834375 0.0 323.740625 -2.2265625L312.803125 -23.59375H299.5609375V-3.0859375Q299.5609375 0.0 296.709375 0.0Q293.9359375 0.0 293.9359375 -3.125V-55.7421875Q293.9359375 -58.75 296.9828125 -58.75Z"/><path d="M346.39531250000005 -5.625Q346.39531250000005 -5.625 359.95000000000005 -5.625Q365.18437500000005 -5.625 367.78203125000005 -8.33984375Q370.37968750000005 -11.0546875 370.37968750000005 -15.0V-44.3359375Q370.37968750000005 -47.8125 367.84062500000005 -50.5859375Q365.30156250000005 -53.359375 361.12187500000005 -53.359375H346.39531250000005Q346.39531250000005 -53.359375 346.39531250000005 -5.625ZM340.65312500000005 -55.78125Q340.65312500000005 -58.984375 343.89531250000005 -58.984375H362.21562500000005Q367.60625000000005 -58.984375 371.80546875000005 -54.765625Q376.00468750000005 -50.546875 376.00468750000005 -45.1953125V-13.671875Q376.00468750000005 -8.3203125 371.78593750000005 -4.16015625Q367.56718750000005 0.0 362.76250000000005 0.0H343.27031250000005Q340.65312500000005 0.0 340.65312500000005 -3.4765625Z"/></g><circle cx="683.8" cy="307.7" r="8" fill="none" stroke="#eef2f6" stroke-width="1.3"/><line x1="669.81" y1="307.70" x2="697.81" y2="307.70" stroke="#eef2f6" stroke-width="1.0" stroke-linecap="butt" stroke-dasharray="7 3 2 3"/><line x1="683.81" y1="293.70" x2="683.81" y2="321.70" stroke="#eef2f6" stroke-width="1.0" stroke-linecap="butt" stroke-dasharray="7 3 2 3"/><g transform="translate(429.15,161.40)" fill="#eef2f6"><path d="M1.73828125 -11.123046875Q0.9765625 -11.123046875 0.9765625 -11.806640625Q0.9765625 -12.021484375 1.15234375 -12.373046875Q1.767578125 -13.583984375 2.568359375 -14.1015625Q3.564453125 -14.74609375 4.66796875 -14.74609375Q6.5234375 -14.74609375 7.578125 -13.330078125Q8.349609375 -12.294921875 8.349609375 -11.103515625Q8.349609375 -10.05859375 7.705078125 -9.013671875L2.96875 -1.3671875H7.59765625Q8.330078125 -1.3671875 8.330078125 -0.634765625Q8.330078125 0.0 7.529296875 0.0H1.85546875Q0.986328125 0.0 0.986328125 -0.625Q0.986328125 -0.8984375 1.11328125 -1.103515625L6.3671875 -9.5703125Q6.904296875 -10.439453125 6.904296875 -11.103515625Q6.904296875 -11.943359375 6.3671875 -12.568359375Q5.712890625 -13.330078125 4.619140625 -13.330078125Q3.26171875 -13.330078125 2.421875 -11.728515625Q2.099609375 -11.123046875 1.73828125 -11.123046875Z"/><path d="M13.1640625 -5.146484375Q13.1640625 -5.146484375 10.458984375 -9.1796875Q10.302734375 -9.4140625 10.302734375 -9.619140625Q10.302734375 -10.322265625 11.064453125 -10.322265625Q11.396484375 -10.322265625 11.630859375 -9.970703125L13.984375 -6.435546875L16.34765625 -9.970703125Q16.572265625 -10.29296875 16.953125 -10.29296875Q17.607421875 -10.29296875 17.607421875 -9.677734375Q17.607421875 -9.326171875 17.4609375 -9.091796875Q17.4609375 -9.091796875 14.814453125 -5.15625Q14.814453125 -5.15625 17.392578125 -1.30859375Q17.63671875 -0.927734375 17.63671875 -0.703125Q17.63671875 0.0 16.962890625 0.0Q16.552734375 0.0 16.328125 -0.341796875Q16.328125 -0.341796875 14.00390625 -3.896484375Q14.00390625 -3.896484375 11.66015625 -0.380859375Q11.40625 0.0 11.044921875 0.0Q10.302734375 0.0 10.302734375 -0.6640625Q10.302734375 -0.927734375 10.478515625 -1.201171875Q10.478515625 -1.201171875 13.1640625 -5.146484375Z"/><path d="M28.7890625 -10.625Q28.7890625 -12.24609375 30.068359375 -13.515625Q31.357421875 -14.794921875 33.212890625 -14.794921875Q34.990234375 -14.794921875 36.259765625 -13.525390625Q36.650390625 -13.134765625 36.93359375 -12.71484375L37.63671875 -13.515625Q38.02734375 -13.974609375 38.4375 -13.974609375Q39.130859375 -13.974609375 39.130859375 -13.349609375Q39.130859375 -12.98828125 38.96484375 -12.79296875L37.5390625 -11.171875Q37.607421875 -10.810546875 37.607421875 -10.419921875V-4.453125Q37.607421875 -2.5390625 36.26953125 -1.240234375Q34.990234375 0.0 33.14453125 0.0Q31.376953125 0.0 30.107421875 -1.240234375Q29.736328125 -1.6015625 29.462890625 -1.9921875L28.828125 -1.26953125Q28.359375 -0.732421875 28.017578125 -0.732421875Q27.3046875 -0.732421875 27.3046875 -1.40625Q27.3046875 -1.748046875 27.548828125 -2.021484375L28.84765625 -3.49609375Q28.7890625 -3.828125 28.7890625 -4.1796875ZM36.19140625 -9.638671875 30.46875 -3.125Q30.712890625 -2.63671875 31.201171875 -2.197265625Q32.041015625 -1.4453125 33.10546875 -1.4453125Q34.3359375 -1.4453125 35.107421875 -2.138671875Q36.19140625 -3.115234375 36.19140625 -4.4140625ZM30.224609375 -5.068359375 35.947265625 -11.591796875Q35.693359375 -12.177734375 35.166015625 -12.607421875Q34.2578125 -13.349609375 33.095703125 -13.349609375Q32.12890625 -13.349609375 31.201171875 -12.59765625Q30.224609375 -11.806640625 30.224609375 -10.390625Z"/><path d="M42.587890625 -14.43359375Q42.919921875 -14.74609375 43.28125 -14.74609375Q44.013671875 -14.74609375 44.013671875 -13.935546875V-0.87890625Q44.013671875 -0.048828125 43.310546875 -0.048828125Q42.587890625 -0.048828125 42.587890625 -0.888671875Q42.587890625 -0.888671875 42.587890625 -12.40234375L40.888671875 -10.703125Q40.625 -10.439453125 40.361328125 -10.439453125Q39.619140625 -10.439453125 39.619140625 -11.09375Q39.619140625 -11.42578125 39.90234375 -11.708984375Z"/><path d="M47.919921875 -2.08984375Q48.720703125 -2.08984375 48.720703125 -0.9765625Q48.720703125 0.0 47.96875 0.0Q47.236328125 0.0 47.236328125 -1.044921875Q47.236328125 -2.08984375 47.919921875 -2.08984375Z"/><path d="M51.259765625 -14.00390625Q51.259765625 -14.74609375 52.109375 -14.74609375Q52.109375 -14.74609375 57.8515625 -14.74609375Q58.662109375 -14.74609375 58.662109375 -14.04296875Q58.662109375 -13.33984375 57.890625 -13.33984375H52.6953125V-8.818359375H54.86328125Q56.748046875 -8.818359375 57.890625 -7.412109375Q58.65234375 -6.474609375 58.65234375 -5.166015625V-3.59375Q58.65234375 -2.03125 57.587890625 -1.044921875Q56.46484375 0.0 55.107421875 0.0H52.060546875Q51.30859375 0.0 51.30859375 -0.68359375Q51.30859375 -1.376953125 52.12890625 -1.376953125H54.84375Q56.07421875 -1.376953125 56.728515625 -2.216796875Q57.216796875 -2.841796875 57.216796875 -3.69140625V-5.166015625Q57.216796875 -6.044921875 56.640625 -6.689453125Q55.99609375 -7.412109375 54.66796875 -7.412109375H51.97265625Q51.259765625 -7.412109375 51.259765625 -8.2421875Z"/></g><g transform="translate(429.10,181.18)" fill="#eef2f6"><path d="M3.5546875 -10.3564453125Q3.5546875 -10.3564453125 5.646484375 -10.3564453125Q6.15234375 -10.3564453125 6.15234375 -9.84375Q6.15234375 -9.32421875 5.60546875 -9.32421875H3.5478515625Q2.9736328125 -9.32421875 2.43359375 -8.8251953125Q2.0234375 -8.4423828125 2.0234375 -7.7998046875V-2.5771484375Q2.0234375 -1.9345703125 2.4541015625 -1.4697265625Q2.9052734375 -0.9912109375 3.390625 -0.9912109375H5.6875Q6.1796875 -0.9912109375 6.1796875 -0.4921875Q6.1796875 -0.0205078125 5.6806640625 -0.0205078125H3.349609375Q2.40625 -0.0205078125 1.5859375 -0.9296875Q1.025390625 -1.5517578125 1.025390625 -2.5224609375V-7.875Q1.025390625 -8.900390625 1.83203125 -9.6591796875Q2.5703125 -10.3564453125 3.5546875 -10.3564453125Z"/><path d="M8.8935546875 -2.8916015625Q8.8935546875 -2.1533203125 9.5771484375 -1.5380859375Q10.171875 -1.01171875 10.91015625 -1.01171875Q11.771484375 -1.01171875 12.3115234375 -1.4970703125Q13.0703125 -2.1806640625 13.0703125 -3.08984375V-7.24609375Q13.0703125 -8.244140625 12.3525390625 -8.8251953125Q11.7099609375 -9.3447265625 10.9033203125 -9.3447265625Q10.2265625 -9.3447265625 9.5771484375 -8.818359375Q8.8935546875 -8.2646484375 8.8935546875 -7.2734375ZM7.888671875 -7.4375Q7.888671875 -8.572265625 8.7841796875 -9.4609375Q9.6865234375 -10.3564453125 10.9853515625 -10.3564453125Q12.22265625 -10.3564453125 13.1181640625 -9.4677734375Q14.0615234375 -8.53125 14.0615234375 -7.2939453125V-3.1171875Q14.0615234375 -1.77734375 13.125 -0.8681640625Q12.2294921875 0.0 10.9375 0.0Q9.720703125 0.0 8.8115234375 -0.8681640625Q7.888671875 -1.7568359375 7.888671875 -2.92578125Z"/><path d="M21.3349609375 -2.4404296875V-9.8369140625Q21.3349609375 -10.3564453125 21.806640625 -10.3564453125Q22.2783203125 -10.3564453125 22.2783203125 -9.857421875V-0.6083984375Q22.2783203125 -0.041015625 21.8271484375 -0.041015625Q21.5126953125 -0.041015625 21.3076171875 -0.41015625L17.0966796875 -7.9228515625V-0.6083984375Q17.0966796875 -0.0615234375 16.5771484375 -0.0615234375Q16.1123046875 -0.0615234375 16.1123046875 -0.6220703125V-9.748046875Q16.1123046875 -10.3564453125 16.6044921875 -10.3564453125Q16.92578125 -10.3564453125 17.103515625 -10.0419921875Z"/><path d="M23.9873046875 -7.7314453125Q23.9873046875 -8.7978515625 24.7255859375 -9.56005859375Q25.4638671875 -10.322265625 26.509765625 -10.322265625Q27.958984375 -10.322265625 29.1416015625 -9.8779296875Q29.6337890625 -9.693359375 29.6337890625 -9.310546875Q29.6337890625 -8.8388671875 29.162109375 -8.8388671875Q28.9638671875 -8.8388671875 28.5400390625 -9.0029296875Q27.658203125 -9.3447265625 26.66015625 -9.3447265625Q25.7578125 -9.3447265625 25.2861328125 -8.7021484375Q24.9990234375 -8.3125 24.9990234375 -7.6767578125Q24.9990234375 -6.80859375 26.05859375 -6.2685546875L28.5537109375 -5.00390625Q30.173828125 -4.169921875 30.173828125 -2.583984375Q30.173828125 -1.39453125 29.326171875 -0.6630859375Q28.560546875 0.0 27.4873046875 0.0Q25.8603515625 0.0 24.3701171875 -0.9775390625Q23.9873046875 -1.23046875 23.9873046875 -1.5380859375Q23.9873046875 -2.009765625 24.4931640625 -2.009765625Q24.677734375 -2.009765625 24.9853515625 -1.791015625Q26.0654296875 -1.0185546875 27.576171875 -1.0185546875Q28.0205078125 -1.0185546875 28.3759765625 -1.203125Q29.162109375 -1.61328125 29.162109375 -2.6181640625Q29.162109375 -3.568359375 28.1298828125 -4.087890625L25.443359375 -5.4482421875Q23.9873046875 -6.1865234375 23.9873046875 -7.7314453125Z"/><path d="M31.541015625 -9.884765625Q31.541015625 -10.3564453125 32.142578125 -10.3564453125H37.2080078125Q37.7001953125 -10.3564453125 37.7001953125 -9.8642578125Q37.7001953125 -9.365234375 37.2216796875 -9.365234375H35.123046875V-0.5400390625Q35.123046875 0.0 34.6240234375 0.0Q34.125 0.0 34.125 -0.5263671875V-9.365234375H32.12890625Q31.541015625 -9.365234375 31.541015625 -9.884765625Z"/><path d="M40.4140625 -5.1337890625Q40.4140625 -5.1337890625 42.6494140625 -5.1337890625Q43.3603515625 -5.1337890625 44.0712890625 -5.810546875Q44.625 -6.3369140625 44.625 -7.2939453125Q44.625 -8.0185546875 44.0234375 -8.640625Q43.3876953125 -9.3037109375 42.642578125 -9.3037109375H40.4140625ZM39.9423828125 -10.28125H42.642578125Q43.8935546875 -10.28125 44.9189453125 -9.16015625Q45.595703125 -8.421875 45.595703125 -7.4716796875Q45.595703125 -6.5556640625 45.25390625 -5.7490234375Q44.8779296875 -4.8671875 43.7021484375 -4.375L45.486328125 -0.8681640625Q45.5888671875 -0.65625 45.5888671875 -0.51953125Q45.5888671875 0.0 45.0830078125 0.0Q44.81640625 0.0 44.625 -0.3896484375L42.7109375 -4.12890625H40.3935546875V-0.5400390625Q40.3935546875 0.0 39.89453125 0.0Q39.4091796875 0.0 39.4091796875 -0.546875V-9.7548828125Q39.4091796875 -10.28125 39.9423828125 -10.28125Z"/><path d="M47.3046875 -9.8232421875Q47.3046875 -10.3564453125 47.783203125 -10.3564453125Q48.302734375 -10.3564453125 48.302734375 -9.8232421875V-3.19921875Q48.302734375 -2.0986328125 49.041015625 -1.517578125Q49.6904296875 -1.01171875 50.380859375 -1.01171875Q51.2353515625 -1.01171875 51.92578125 -1.6953125Q52.486328125 -2.2490234375 52.486328125 -3.2333984375V-9.8232421875Q52.486328125 -10.3564453125 52.9990234375 -10.3564453125Q53.498046875 -10.3564453125 53.498046875 -9.7548828125V-3.2744140625Q53.498046875 -1.818359375 52.6025390625 -0.9638671875Q51.6318359375 -0.0341796875 50.3671875 -0.0341796875Q49.2392578125 -0.0341796875 48.357421875 -0.7724609375Q47.3046875 -1.654296875 47.3046875 -3.0419921875Z"/><path d="M58.078125 -10.3564453125Q58.078125 -10.3564453125 60.169921875 -10.3564453125Q60.67578125 -10.3564453125 60.67578125 -9.84375Q60.67578125 -9.32421875 60.12890625 -9.32421875H58.0712890625Q57.4970703125 -9.32421875 56.95703125 -8.8251953125Q56.546875 -8.4423828125 56.546875 -7.7998046875V-2.5771484375Q56.546875 -1.9345703125 56.9775390625 -1.4697265625Q57.4287109375 -0.9912109375 57.9140625 -0.9912109375H60.2109375Q60.703125 -0.9912109375 60.703125 -0.4921875Q60.703125 -0.0205078125 60.2041015625 -0.0205078125H57.873046875Q56.9296875 -0.0205078125 56.109375 -0.9296875Q55.548828125 -1.5517578125 55.548828125 -2.5224609375V-7.875Q55.548828125 -8.900390625 56.35546875 -9.6591796875Q57.09375 -10.3564453125 58.078125 -10.3564453125Z"/><path d="M62.0703125 -9.884765625Q62.0703125 -10.3564453125 62.671875 -10.3564453125H67.7373046875Q68.2294921875 -10.3564453125 68.2294921875 -9.8642578125Q68.2294921875 -9.365234375 67.7509765625 -9.365234375H65.65234375V-0.5400390625Q65.65234375 0.0 65.1533203125 0.0Q64.654296875 0.0 64.654296875 -0.5263671875V-9.365234375H62.658203125Q62.0703125 -9.365234375 62.0703125 -9.884765625Z"/><path d="M69.9384765625 -0.642578125V-9.70703125Q69.9384765625 -10.322265625 70.4580078125 -10.322265625Q70.9775390625 -10.322265625 70.9775390625 -9.6865234375V-0.65625Q70.9775390625 0.0 70.4580078125 0.0Q69.9384765625 0.0 69.9384765625 -0.642578125Z"/><path d="M74.033203125 -2.8916015625Q74.033203125 -2.1533203125 74.716796875 -1.5380859375Q75.3115234375 -1.01171875 76.0498046875 -1.01171875Q76.9111328125 -1.01171875 77.451171875 -1.4970703125Q78.2099609375 -2.1806640625 78.2099609375 -3.08984375V-7.24609375Q78.2099609375 -8.244140625 77.4921875 -8.8251953125Q76.849609375 -9.3447265625 76.04296875 -9.3447265625Q75.3662109375 -9.3447265625 74.716796875 -8.818359375Q74.033203125 -8.2646484375 74.033203125 -7.2734375ZM73.0283203125 -7.4375Q73.0283203125 -8.572265625 73.923828125 -9.4609375Q74.826171875 -10.3564453125 76.125 -10.3564453125Q77.3623046875 -10.3564453125 78.2578125 -9.4677734375Q79.201171875 -8.53125 79.201171875 -7.2939453125V-3.1171875Q79.201171875 -1.77734375 78.2646484375 -0.8681640625Q77.369140625 0.0 76.0771484375 0.0Q74.8603515625 0.0 73.951171875 -0.8681640625Q73.0283203125 -1.7568359375 73.0283203125 -2.92578125Z"/><path d="M86.474609375 -2.4404296875V-9.8369140625Q86.474609375 -10.3564453125 86.9462890625 -10.3564453125Q87.41796875 -10.3564453125 87.41796875 -9.857421875V-0.6083984375Q87.41796875 -0.041015625 86.966796875 -0.041015625Q86.65234375 -0.041015625 86.447265625 -0.41015625L82.236328125 -7.9228515625V-0.6083984375Q82.236328125 -0.0615234375 81.716796875 -0.0615234375Q81.251953125 -0.0615234375 81.251953125 -0.6220703125V-9.748046875Q81.251953125 -10.3564453125 81.744140625 -10.3564453125Q82.0654296875 -10.3564453125 82.2431640625 -10.0419921875Z"/><path d="M100.802734375 -5.1953125H96.5576171875V-0.5263671875Q96.5576171875 0.0 96.05517578125 0.0Q95.552734375 0.0 95.552734375 -0.51953125V-9.7412109375Q95.552734375 -10.322265625 96.05517578125 -10.322265625Q96.5576171875 -10.322265625 96.5576171875 -9.7412109375V-6.1796875H100.802734375V-9.7822265625Q100.802734375 -10.294921875 101.2880859375 -10.294921875Q101.7734375 -10.294921875 101.7734375 -9.7890625V-0.546875Q101.7734375 0.0 101.2880859375 0.0Q100.802734375 0.0 100.802734375 -0.533203125Z"/><path d="M104.8291015625 -2.8916015625Q104.8291015625 -2.1533203125 105.5126953125 -1.5380859375Q106.107421875 -1.01171875 106.845703125 -1.01171875Q107.70703125 -1.01171875 108.2470703125 -1.4970703125Q109.005859375 -2.1806640625 109.005859375 -3.08984375V-7.24609375Q109.005859375 -8.244140625 108.2880859375 -8.8251953125Q107.6455078125 -9.3447265625 106.8388671875 -9.3447265625Q106.162109375 -9.3447265625 105.5126953125 -8.818359375Q104.8291015625 -8.2646484375 104.8291015625 -7.2734375ZM103.82421875 -7.4375Q103.82421875 -8.572265625 104.7197265625 -9.4609375Q105.6220703125 -10.3564453125 106.9208984375 -10.3564453125Q108.158203125 -10.3564453125 109.0537109375 -9.4677734375Q109.9970703125 -8.53125 109.9970703125 -7.2939453125V-3.1171875Q109.9970703125 -1.77734375 109.060546875 -0.8681640625Q108.1650390625 0.0 106.873046875 0.0Q105.65625 0.0 104.7470703125 -0.8681640625Q103.82421875 -1.7568359375 103.82421875 -2.92578125Z"/><path d="M113.0390625 -9.7958984375V-0.9912109375H116.6005859375Q117.22265625 -0.9912109375 117.22265625 -0.49560546875Q117.22265625 0.0 116.580078125 0.0H112.533203125Q112.0478515625 0.0 112.0478515625 -0.6083984375V-9.7958984375Q112.0478515625 -10.322265625 112.54345703125 -10.322265625Q113.0390625 -10.322265625 113.0390625 -9.7958984375Z"/><path d="M119.916015625 -1.0185546875H123.5595703125Q124.0654296875 -1.0185546875 124.0654296875 -0.5263671875Q124.0654296875 -0.0341796875 123.580078125 -0.0341796875H119.3828125Q118.931640625 -0.0341796875 118.931640625 -0.546875V-9.8232421875Q118.931640625 -10.3564453125 119.5400390625 -10.3564453125H123.525390625Q124.0791015625 -10.3564453125 124.0791015625 -9.857421875Q124.0791015625 -9.365234375 123.525390625 -9.365234375H119.916015625V-6.1796875H122.5546875Q123.0537109375 -6.1796875 123.0537109375 -5.6875Q123.0537109375 -5.22265625 122.568359375 -5.22265625H119.916015625Z"/></g><rect x="430.1" y="188.0" width="155.4" height="36.0" fill="none" stroke="#eef2f6" stroke-width="1.6"/><circle cx="448.12" cy="206.00" r="7.20" fill="none" stroke="#eef2f6" stroke-width="1.4"/><line x1="448.12" y1="193.76" x2="448.12" y2="218.24" stroke="#eef2f6" stroke-width="1.4" stroke-linecap="butt"/><line x1="435.88" y1="206.00" x2="460.36" y2="206.00" stroke="#eef2f6" stroke-width="1.4" stroke-linecap="butt"/><line x1="466.12" y1="188.00" x2="466.12" y2="224.00" stroke="#eef2f6" stroke-width="1.6" stroke-linecap="butt"/><g transform="translate(474.12,212.66)" fill="#eef2f6"><path d="M1.3359375 -9.5625Q1.3359375 -11.021484375 2.4873046875 -12.1640625Q3.6474609375 -13.3154296875 5.3173828125 -13.3154296875Q6.9169921875 -13.3154296875 8.0595703125 -12.1728515625Q8.4111328125 -11.8212890625 8.666015625 -11.443359375L9.298828125 -12.1640625Q9.650390625 -12.5771484375 10.01953125 -12.5771484375Q10.6435546875 -12.5771484375 10.6435546875 -12.0146484375Q10.6435546875 -11.689453125 10.494140625 -11.513671875L9.2109375 -10.0546875Q9.2724609375 -9.7294921875 9.2724609375 -9.3779296875V-4.0078125Q9.2724609375 -2.28515625 8.068359375 -1.1162109375Q6.9169921875 0.0 5.255859375 0.0Q3.6650390625 0.0 2.5224609375 -1.1162109375Q2.1884765625 -1.44140625 1.9423828125 -1.79296875L1.37109375 -1.142578125Q0.94921875 -0.6591796875 0.6416015625 -0.6591796875Q0.0 -0.6591796875 0.0 -1.265625Q0.0 -1.5732421875 0.2197265625 -1.8193359375L1.388671875 -3.146484375Q1.3359375 -3.4453125 1.3359375 -3.76171875ZM7.998046875 -8.6748046875 2.84765625 -2.8125Q3.0673828125 -2.373046875 3.5068359375 -1.9775390625Q4.2626953125 -1.30078125 5.220703125 -1.30078125Q6.328125 -1.30078125 7.0224609375 -1.9248046875Q7.998046875 -2.8037109375 7.998046875 -3.97265625ZM2.6279296875 -4.5615234375 7.7783203125 -10.4326171875Q7.5498046875 -10.9599609375 7.0751953125 -11.3466796875Q6.2578125 -12.0146484375 5.2119140625 -12.0146484375Q4.341796875 -12.0146484375 3.5068359375 -11.337890625Q2.6279296875 -10.6259765625 2.6279296875 -9.3515625Z"/><path d="M14.8359375 -12.005859375Q14.23828125 -12.005859375 13.974609375 -11.478515625Q13.2890625 -10.125 12.97265625 -8.3759765625Q12.8232421875 -7.55859375 12.8232421875 -6.71484375Q12.8232421875 -6.099609375 12.90234375 -5.4931640625Q13.1572265625 -3.5068359375 13.7724609375 -2.1181640625Q14.1416015625 -1.283203125 14.8271484375 -1.283203125Q15.486328125 -1.283203125 15.8818359375 -2.0390625Q16.4619140625 -3.1552734375 16.751953125 -5.1064453125Q16.875 -5.94140625 16.875 -6.7236328125Q16.875 -7.505859375 16.751953125 -8.2353515625Q16.435546875 -10.08984375 15.71484375 -11.49609375Q15.451171875 -12.005859375 14.8359375 -12.005859375ZM14.8798828125 -13.271484375Q16.083984375 -13.271484375 16.716796875 -12.33984375Q17.6923828125 -10.9072265625 18.0703125 -8.3056640625Q18.1845703125 -7.5234375 18.1845703125 -6.7236328125Q18.1845703125 -5.8798828125 18.0615234375 -5.044921875Q17.68359375 -2.4609375 16.751953125 -1.001953125Q16.1103515625 0.0 14.853515625 0.0Q13.6142578125 0.0 12.955078125 -1.037109375Q12.146484375 -2.302734375 11.6630859375 -5.0009765625Q11.5224609375 -5.783203125 11.5224609375 -6.6005859375Q11.5224609375 -7.453125 11.671875 -8.314453125Q12.1376953125 -10.9951171875 12.884765625 -12.1904296875Q13.552734375 -13.271484375 14.8798828125 -13.271484375Z"/><path d="M20.8212890625 -1.880859375Q21.5419921875 -1.880859375 21.5419921875 -0.87890625Q21.5419921875 0.0 20.865234375 0.0Q20.2060546875 0.0 20.2060546875 -0.9404296875Q20.2060546875 -1.880859375 20.8212890625 -1.880859375Z"/><path d="M26.876953125 -12.005859375Q26.279296875 -12.005859375 26.015625 -11.478515625Q25.330078125 -10.125 25.013671875 -8.3759765625Q24.8642578125 -7.55859375 24.8642578125 -6.71484375Q24.8642578125 -6.099609375 24.943359375 -5.4931640625Q25.1982421875 -3.5068359375 25.8134765625 -2.1181640625Q26.1826171875 -1.283203125 26.8681640625 -1.283203125Q27.52734375 -1.283203125 27.9228515625 -2.0390625Q28.5029296875 -3.1552734375 28.79296875 -5.1064453125Q28.916015625 -5.94140625 28.916015625 -6.7236328125Q28.916015625 -7.505859375 28.79296875 -8.2353515625Q28.4765625 -10.08984375 27.755859375 -11.49609375Q27.4921875 -12.005859375 26.876953125 -12.005859375ZM26.9208984375 -13.271484375Q28.125 -13.271484375 28.7578125 -12.33984375Q29.7333984375 -10.9072265625 30.111328125 -8.3056640625Q30.2255859375 -7.5234375 30.2255859375 -6.7236328125Q30.2255859375 -5.8798828125 30.1025390625 -5.044921875Q29.724609375 -2.4609375 28.79296875 -1.001953125Q28.1513671875 0.0 26.89453125 0.0Q25.6552734375 0.0 24.99609375 -1.037109375Q24.1875 -2.302734375 23.7041015625 -5.0009765625Q23.5634765625 -5.783203125 23.5634765625 -6.6005859375Q23.5634765625 -7.453125 23.712890625 -8.314453125Q24.1787109375 -10.9951171875 24.92578125 -12.1904296875Q25.59375 -13.271484375 26.9208984375 -13.271484375Z"/><path d="M32.8359375 -13.3154296875Q32.8359375 -13.3154296875 35.5869140625 -13.3154296875Q36.7822265625 -13.3154296875 37.7314453125 -12.287109375Q38.6103515625 -11.337890625 38.6103515625 -10.0634765625Q38.6103515625 -8.4638671875 37.2392578125 -7.330078125Q38.5751953125 -6.36328125 38.5751953125 -4.9482421875Q38.5751953125 -4.9482421875 38.5751953125 -3.0146484375Q38.5751953125 -1.880859375 37.599609375 -0.9052734375Q36.73828125 -0.0439453125 35.349609375 -0.0439453125Q35.349609375 -0.0439453125 32.73046875 -0.0439453125Q31.9833984375 -0.0439453125 31.9833984375 -0.6943359375Q31.9833984375 -1.283203125 32.7744140625 -1.283203125Q32.7744140625 -1.283203125 35.0947265625 -1.283203125Q36.158203125 -1.283203125 36.7734375 -1.916015625Q37.3447265625 -2.5048828125 37.3447265625 -3.4541015625V-4.5966796875Q37.3447265625 -5.4931640625 36.8173828125 -6.046875Q36.17578125 -6.7236328125 35.4462890625 -6.7236328125H34.1103515625Q33.380859375 -6.7236328125 33.380859375 -7.3828125Q33.380859375 -7.962890625 34.119140625 -7.962890625H35.3056640625Q36.1318359375 -7.962890625 36.720703125 -8.560546875Q37.3447265625 -9.193359375 37.3447265625 -10.001953125Q37.3447265625 -10.828125 36.84375 -11.337890625Q36.158203125 -12.0322265625 35.4375 -12.0322265625H32.8359375Q32.0185546875 -12.0322265625 32.0185546875 -12.69140625Q32.0185546875 -13.3154296875 32.8359375 -13.3154296875Z"/></g><line x1="520.73" y1="188.00" x2="520.73" y2="224.00" stroke="#eef2f6" stroke-width="1.6" stroke-linecap="butt"/><g transform="translate(531.41,212.62)" fill="#eef2f6"><path d="M4.95703125 -12.7880859375Q5.115234375 -13.271484375 5.572265625 -13.271484375Q6.01171875 -13.271484375 6.169921875 -12.7880859375L10.0986328125 -0.9755859375Q10.177734375 -0.73828125 10.177734375 -0.5888671875Q10.177734375 -0.0703125 9.544921875 0.0Q9.0791015625 0.0 8.8857421875 -0.580078125Q8.8857421875 -0.580078125 7.9892578125 -3.357421875H3.1201171875L2.162109375 -0.509765625Q1.9775390625 0.0263671875 1.564453125 0.0263671875Q0.87890625 0.0263671875 0.87890625 -0.615234375Q0.87890625 -0.703125 1.072265625 -1.2744140625ZM5.537109375 -10.599609375 3.515625 -4.5966796875H7.5673828125Z"/></g><line x1="553.13" y1="188.00" x2="553.13" y2="224.00" stroke="#eef2f6" stroke-width="1.6" stroke-linecap="butt"/><g transform="translate(564.01,212.64)" fill="#eef2f6"><path d="M9.333984375 -4.04296875Q9.333984375 -2.109375 8.10791015625 -1.0546875Q6.8818359375 0.0 5.7919921875 0.0H1.93359375Q1.318359375 0.0 1.318359375 -0.7998046875V-12.4453125Q1.318359375 -13.271484375 2.1357421875 -13.271484375H4.8779296875Q6.5478515625 -13.271484375 7.3125 -12.603515625Q8.6484375 -11.4345703125 8.6484375 -9.94921875Q8.6484375 -8.33203125 7.41796875 -7.365234375Q8.2353515625 -6.890625 8.78466796875 -6.0029296875Q9.333984375 -5.115234375 9.333984375 -4.04296875ZM2.671875 -6.57421875V-1.2216796875H5.4140625Q6.609375 -1.2216796875 7.330078125 -2.0478515625Q8.05078125 -2.8740234375 8.05078125 -3.8759765625Q8.05078125 -4.8779296875 7.3740234375 -5.73046875Q6.7060546875 -6.57421875 5.4404296875 -6.57421875ZM2.671875 -11.9619140625V-7.9453125H5.3525390625Q6.36328125 -7.9453125 6.86865234375 -8.49462890625Q7.3740234375 -9.0439453125 7.3740234375 -9.861328125Q7.3740234375 -10.6875 6.837890625 -11.32470703125Q6.3017578125 -11.9619140625 5.3173828125 -11.9619140625Z"/></g><line x1="585.53" y1="206.00" x2="678.21" y2="302.10" stroke="#eef2f6" stroke-width="1.2" stroke-linecap="butt"/><polygon points="678.21,302.10 667.84,296.82 673.31,291.54" fill="#eef2f6"/><polygon points="464.1,307.7 451.1,333.7 477.1,333.7" fill="#eef2f6"/><line x1="464.12" y1="333.70" x2="464.12" y2="341.70" stroke="#eef2f6" stroke-width="1.2" stroke-linecap="butt"/><rect x="449.8" y="341.7" width="28.6" height="23.4" fill="none" stroke="#eef2f6" stroke-width="1.5"/><g transform="translate(458.95,359.60)" fill="#eef2f6"><path d="M4.63978125 -11.969648437500002Q4.787859375000001 -12.422109375000002 5.215640625000001 -12.422109375000002Q5.6269687500000005 -12.422109375000002 5.775046875000001 -11.969648437500002L9.452320312500001 -0.9131484375000002Q9.526359375000002 -0.6910312500000001 9.526359375000002 -0.5511796875000001Q9.526359375000002 -0.06581250000000001 8.934046875000002 0.0Q8.498039062500002 0.0 8.3170546875 -0.542953125Q8.3170546875 -0.542953125 7.477945312500001 -3.1425468750000003H2.9204296875000004L2.023734375 -0.4771406250000001Q1.8509765625000003 0.024679687500000005 1.4643281250000002 0.024679687500000005Q0.8226562500000001 0.024679687500000005 0.8226562500000001 -0.5758593750000001Q0.8226562500000001 -0.6581250000000001 1.003640625 -1.1928515625000002ZM5.182734375000001 -9.921234375000001 3.2906250000000004 -4.3024921875H7.083070312500001Z"/></g><polygon points="895.9,542.2 882.9,516.2 908.9,516.2" fill="#eef2f6"/><line x1="895.88" y1="516.23" x2="895.88" y2="508.23" stroke="#eef2f6" stroke-width="1.2" stroke-linecap="butt"/><rect x="881.6" y="484.8" width="28.6" height="23.4" fill="none" stroke="#eef2f6" stroke-width="1.5"/><g transform="translate(890.89,502.74)" fill="#eef2f6"><path d="M8.736609375 -3.7842187500000004Q8.736609375 -1.9743750000000002 7.589003906250001 -0.9871875000000001Q6.441398437500001 0.0 5.421304687500001 0.0H1.8098437500000002Q1.2339843750000001 0.0 1.2339843750000001 -0.7486171875000001V-11.648812500000002Q1.2339843750000001 -12.422109375000002 1.9990546875000004 -12.422109375000002H4.565742187500001Q6.128789062500001 -12.422109375000002 6.844500000000001 -11.796890625000001Q8.0949375 -10.702757812500002 8.0949375 -9.31246875Q8.0949375 -7.798781250000001 6.943218750000001 -6.893859375000001Q7.708289062500001 -6.449625000000001 8.22244921875 -5.6187421875000005Q8.736609375 -4.787859375000001 8.736609375 -3.7842187500000004ZM2.500875 -6.153468750000001V-1.1434921875000001H5.067562500000001Q6.186375000000001 -1.1434921875000001 6.860953125000001 -1.9167890625000004Q7.535531250000001 -2.6900859375000006 7.535531250000001 -3.6279140625000004Q7.535531250000001 -4.565742187500001 6.902085937500001 -5.363718750000001Q6.276867187500001 -6.153468750000001 5.092242187500001 -6.153468750000001ZM2.500875 -11.196351562500002V-7.436812500000001H5.0099765625Q5.9560312500000006 -7.436812500000001 6.429058593750001 -7.950972656250002Q6.902085937500001 -8.465132812500002 6.902085937500001 -9.230203125000001Q6.902085937500001 -10.0035 6.400265625000001 -10.59992578125Q5.898445312500001 -11.196351562500002 4.9770703125 -11.196351562500002Z"/></g><polygon points="680.0,577.9 667.0,603.9 693.0,603.9" fill="#eef2f6"/><line x1="680.00" y1="603.88" x2="680.00" y2="611.88" stroke="#eef2f6" stroke-width="1.2" stroke-linecap="butt"/><rect x="665.7" y="611.9" width="28.6" height="23.4" fill="none" stroke="#eef2f6" stroke-width="1.5"/><g transform="translate(675.66,629.82)" fill="#eef2f6"><path d="M4.2778125000000005 -12.463242187500002Q4.2778125000000005 -12.463242187500002 6.795140625000001 -12.463242187500002Q7.403906250000001 -12.463242187500002 7.403906250000001 -11.846250000000001Q7.403906250000001 -11.221031250000001 6.745781250000001 -11.221031250000001H4.2695859375000005Q3.5785546875000005 -11.221031250000001 2.9286562500000004 -10.620492187500002Q2.4350625000000004 -10.159804687500001 2.4350625000000004 -9.386507812500001V-3.1014140625000004Q2.4350625000000004 -2.3281171875 2.9533359375000003 -1.7687109375000003Q3.4962890625000007 -1.1928515625000002 4.080375000000001 -1.1928515625000002H6.844500000000001Q7.436812500000001 -1.1928515625000002 7.436812500000001 -0.5923125000000001Q7.436812500000001 -0.024679687500000005 6.836273437500001 -0.024679687500000005H4.031015625Q2.8957500000000005 -0.024679687500000005 1.9085625000000004 -1.1188125000000002Q1.2339843750000001 -1.8674296875000003 1.2339843750000001 -3.0356015625000006V-9.477000000000002Q1.2339843750000001 -10.710984375000002 2.2047187500000005 -11.624132812500001Q3.0931875000000004 -12.463242187500002 4.2778125000000005 -12.463242187500002Z"/></g><line x1="456.12" y1="250.00" x2="387.12" y2="250.00" stroke="#eef2f6" stroke-width="1.0" stroke-linecap="butt"/><line x1="456.12" y1="571.88" x2="387.12" y2="571.88" stroke="#eef2f6" stroke-width="1.0" stroke-linecap="butt"/><line x1="378.12" y1="250.00" x2="378.12" y2="571.88" stroke="#eef2f6" stroke-width="1.5" stroke-linecap="butt"/><polygon points="378.12,250.00 382.72,263.00 373.52,263.00" fill="#eef2f6"/><polygon points="378.12,571.88 373.52,558.88 382.72,558.88" fill="#eef2f6"/><g transform="translate(363.42,410.94) rotate(-90)"><g transform="translate(-19.36,7.77)" fill="#eef2f6"><path d="M3.6298828125 -15.1552734375Q3.978515625 -15.4833984375 4.35791015625 -15.4833984375Q5.126953125 -15.4833984375 5.126953125 -14.63232421875V-0.9228515625Q5.126953125 -0.05126953125 4.388671875 -0.05126953125Q3.6298828125 -0.05126953125 3.6298828125 -0.93310546875Q3.6298828125 -0.93310546875 3.6298828125 -13.0224609375L1.845703125 -11.23828125Q1.56884765625 -10.96142578125 1.2919921875 -10.96142578125Q0.5126953125 -10.96142578125 0.5126953125 -11.6484375Q0.5126953125 -11.9970703125 0.81005859375 -12.29443359375Z"/><path d="M10.8076171875 -15.1552734375Q11.15625 -15.4833984375 11.53564453125 -15.4833984375Q12.3046875 -15.4833984375 12.3046875 -14.63232421875V-0.9228515625Q12.3046875 -0.05126953125 11.56640625 -0.05126953125Q10.8076171875 -0.05126953125 10.8076171875 -0.93310546875Q10.8076171875 -0.93310546875 10.8076171875 -13.0224609375L9.0234375 -11.23828125Q8.74658203125 -10.96142578125 8.4697265625 -10.96142578125Q7.6904296875 -10.96142578125 7.6904296875 -11.6484375Q7.6904296875 -11.9970703125 7.98779296875 -12.29443359375Z"/><path d="M19.73876953125 -7.79296875Q18.826171875 -7.79296875 18.12890625 -7.13671875Q17.3701171875 -6.4189453125 17.3701171875 -5.49609375V-3.6298828125Q17.3701171875 -2.87109375 18.26220703125 -2.0302734375Q18.79541015625 -1.52783203125 19.7490234375 -1.52783203125Q20.57958984375 -1.52783203125 21.39990234375 -2.1943359375Q22.1279296875 -2.7890625 22.1279296875 -3.8759765625V-5.40380859375Q22.1279296875 -6.275390625 21.3896484375 -7.1162109375Q20.794921875 -7.79296875 19.73876953125 -7.79296875ZM18.12890625 -13.40185546875Q17.38037109375 -12.62255859375 17.38037109375 -11.7509765625Q17.38037109375 -10.9306640625 17.9033203125 -10.171875Q18.498046875 -9.310546875 19.71826171875 -9.310546875Q20.8974609375 -9.310546875 21.533203125 -10.0283203125Q22.15869140625 -10.7666015625 22.15869140625 -11.67919921875Q22.15869140625 -12.62255859375 21.3486328125 -13.36083984375Q20.630859375 -14.0068359375 19.69775390625 -14.0068359375Q18.71337890625 -14.0068359375 18.12890625 -13.40185546875ZM17.44189453125 -8.56201171875Q15.8935546875 -9.76171875 15.8935546875 -11.89453125Q15.8935546875 -13.5966796875 17.27783203125 -14.642578125Q18.45703125 -15.53466796875 19.7900390625 -15.53466796875Q20.8974609375 -15.53466796875 21.697265625 -15.04248046875Q23.625 -13.85302734375 23.625 -11.67919921875Q23.625 -9.64892578125 22.07666015625 -8.53125Q23.6455078125 -7.2802734375 23.6455078125 -5.46533203125V-3.7119140625Q23.6455078125 -2.22509765625 22.32275390625 -0.984375Q21.31787109375 -0.041015625 19.82080078125 -0.041015625Q18.11865234375 -0.041015625 17.23681640625 -0.91259765625Q15.8935546875 -2.2353515625 15.8935546875 -3.650390625V-5.54736328125Q15.8935546875 -7.21875 17.44189453125 -8.56201171875Z"/><path d="M27.234375 -2.1943359375Q28.0751953125 -2.1943359375 28.0751953125 -1.025390625Q28.0751953125 0.0 27.28564453125 0.0Q26.5166015625 0.0 26.5166015625 -1.09716796875Q26.5166015625 -2.1943359375 27.234375 -2.1943359375Z"/><path d="M34.29931640625 -14.0068359375Q33.60205078125 -14.0068359375 33.29443359375 -13.3916015625Q32.49462890625 -11.8125 32.12548828125 -9.77197265625Q31.951171875 -8.818359375 31.951171875 -7.833984375Q31.951171875 -7.1162109375 32.04345703125 -6.40869140625Q32.3408203125 -4.09130859375 33.05859375 -2.47119140625Q33.4892578125 -1.4970703125 34.2890625 -1.4970703125Q35.05810546875 -1.4970703125 35.51953125 -2.37890625Q36.1962890625 -3.68115234375 36.53466796875 -5.95751953125Q36.67822265625 -6.931640625 36.67822265625 -7.84423828125Q36.67822265625 -8.7568359375 36.53466796875 -9.60791015625Q36.16552734375 -11.771484375 35.32470703125 -13.412109375Q35.01708984375 -14.0068359375 34.29931640625 -14.0068359375ZM34.3505859375 -15.4833984375Q35.75537109375 -15.4833984375 36.49365234375 -14.396484375Q37.6318359375 -12.72509765625 38.07275390625 -9.68994140625Q38.2060546875 -8.77734375 38.2060546875 -7.84423828125Q38.2060546875 -6.85986328125 38.0625 -5.8857421875Q37.62158203125 -2.87109375 36.53466796875 -1.1689453125Q35.7861328125 0.0 34.31982421875 0.0Q32.8740234375 0.0 32.10498046875 -1.2099609375Q31.16162109375 -2.6865234375 30.59765625 -5.83447265625Q30.43359375 -6.7470703125 30.43359375 -7.70068359375Q30.43359375 -8.6953125 30.60791015625 -9.7001953125Q31.1513671875 -12.82763671875 32.02294921875 -14.22216796875Q32.80224609375 -15.4833984375 34.3505859375 -15.4833984375Z"/></g></g><line x1="903.88" y1="250.00" x2="976.88" y2="250.00" stroke="#eef2f6" stroke-width="1.0" stroke-linecap="butt"/><line x1="903.88" y1="571.88" x2="976.88" y2="571.88" stroke="#eef2f6" stroke-width="1.0" stroke-linecap="butt"/><line x1="985.88" y1="250.00" x2="985.88" y2="571.88" stroke="#eef2f6" stroke-width="1.5" stroke-linecap="butt"/><polygon points="985.88,250.00 990.48,263.00 981.28,263.00" fill="#eef2f6"/><polygon points="985.88,571.88 981.28,558.88 990.48,558.88" fill="#eef2f6"/><g transform="translate(1000.58,410.94) rotate(-90)"><g transform="translate(-48.30,7.74)" fill="#eef2f6"><path d="M1.8251953125 -11.67919921875Q1.025390625 -11.67919921875 1.025390625 -12.39697265625Q1.025390625 -12.62255859375 1.2099609375 -12.99169921875Q1.85595703125 -14.26318359375 2.69677734375 -14.806640625Q3.74267578125 -15.4833984375 4.9013671875 -15.4833984375Q6.849609375 -15.4833984375 7.95703125 -13.99658203125Q8.76708984375 -12.90966796875 8.76708984375 -11.65869140625Q8.76708984375 -10.5615234375 8.09033203125 -9.46435546875L3.1171875 -1.435546875H7.9775390625Q8.74658203125 -1.435546875 8.74658203125 -0.66650390625Q8.74658203125 0.0 7.90576171875 0.0H1.9482421875Q1.03564453125 0.0 1.03564453125 -0.65625Q1.03564453125 -0.943359375 1.1689453125 -1.15869140625L6.685546875 -10.048828125Q7.24951171875 -10.96142578125 7.24951171875 -11.65869140625Q7.24951171875 -12.54052734375 6.685546875 -13.19677734375Q5.99853515625 -13.99658203125 4.85009765625 -13.99658203125Q3.4248046875 -13.99658203125 2.54296875 -12.31494140625Q2.20458984375 -11.67919921875 1.8251953125 -11.67919921875Z"/><path d="M14.68359375 -14.0068359375Q13.986328125 -14.0068359375 13.6787109375 -13.3916015625Q12.87890625 -11.8125 12.509765625 -9.77197265625Q12.33544921875 -8.818359375 12.33544921875 -7.833984375Q12.33544921875 -7.1162109375 12.427734375 -6.40869140625Q12.72509765625 -4.09130859375 13.44287109375 -2.47119140625Q13.87353515625 -1.4970703125 14.67333984375 -1.4970703125Q15.4423828125 -1.4970703125 15.90380859375 -2.37890625Q16.58056640625 -3.68115234375 16.9189453125 -5.95751953125Q17.0625 -6.931640625 17.0625 -7.84423828125Q17.0625 -8.7568359375 16.9189453125 -9.60791015625Q16.5498046875 -11.771484375 15.708984375 -13.412109375Q15.4013671875 -14.0068359375 14.68359375 -14.0068359375ZM14.73486328125 -15.4833984375Q16.1396484375 -15.4833984375 16.8779296875 -14.396484375Q18.01611328125 -12.72509765625 18.45703125 -9.68994140625Q18.59033203125 -8.77734375 18.59033203125 -7.84423828125Q18.59033203125 -6.85986328125 18.44677734375 -5.8857421875Q18.005859375 -2.87109375 16.9189453125 -1.1689453125Q16.17041015625 0.0 14.7041015625 0.0Q13.25830078125 0.0 12.4892578125 -1.2099609375Q11.5458984375 -2.6865234375 10.98193359375 -5.83447265625Q10.81787109375 -6.7470703125 10.81787109375 -7.70068359375Q10.81787109375 -8.6953125 10.9921875 -9.7001953125Q11.53564453125 -12.82763671875 12.4072265625 -14.22216796875Q13.1865234375 -15.4833984375 14.73486328125 -15.4833984375Z"/><path d="M21.66650390625 -2.1943359375Q22.50732421875 -2.1943359375 22.50732421875 -1.025390625Q22.50732421875 0.0 21.7177734375 0.0Q20.94873046875 0.0 20.94873046875 -1.09716796875Q20.94873046875 -2.1943359375 21.66650390625 -2.1943359375Z"/><path d="M28.7314453125 -14.0068359375Q28.0341796875 -14.0068359375 27.7265625 -13.3916015625Q26.9267578125 -11.8125 26.5576171875 -9.77197265625Q26.38330078125 -8.818359375 26.38330078125 -7.833984375Q26.38330078125 -7.1162109375 26.4755859375 -6.40869140625Q26.77294921875 -4.09130859375 27.49072265625 -2.47119140625Q27.92138671875 -1.4970703125 28.72119140625 -1.4970703125Q29.490234375 -1.4970703125 29.95166015625 -2.37890625Q30.62841796875 -3.68115234375 30.966796875 -5.95751953125Q31.1103515625 -6.931640625 31.1103515625 -7.84423828125Q31.1103515625 -8.7568359375 30.966796875 -9.60791015625Q30.59765625 -11.771484375 29.7568359375 -13.412109375Q29.44921875 -14.0068359375 28.7314453125 -14.0068359375ZM28.78271484375 -15.4833984375Q30.1875 -15.4833984375 30.92578125 -14.396484375Q32.06396484375 -12.72509765625 32.5048828125 -9.68994140625Q32.63818359375 -8.77734375 32.63818359375 -7.84423828125Q32.63818359375 -6.85986328125 32.49462890625 -5.8857421875Q32.0537109375 -2.87109375 30.966796875 -1.1689453125Q30.21826171875 0.0 28.751953125 0.0Q27.30615234375 0.0 26.537109375 -1.2099609375Q25.59375 -2.6865234375 25.02978515625 -5.83447265625Q24.86572265625 -6.7470703125 24.86572265625 -7.70068359375Q24.86572265625 -8.6953125 25.0400390625 -9.7001953125Q25.58349609375 -12.82763671875 26.455078125 -14.22216796875Q27.234375 -15.4833984375 28.78271484375 -15.4833984375Z"/><path d="M36.57568359375 -9.2490234375Q36.57568359375 -9.2490234375 38.841796875 -9.2490234375Q40.564453125 -9.2490234375 41.712890625 -7.96728515625Q42.7177734375 -6.849609375 42.7177734375 -5.58837890625Q42.7177734375 -5.58837890625 42.7177734375 -3.51708984375Q42.7177734375 -2.1943359375 41.43603515625 -0.95361328125Q40.45166015625 0.0 38.6572265625 0.0Q37.21142578125 0.0 36.09375 -1.0869140625Q34.99658203125 -2.1533203125 34.99658203125 -3.51708984375V-8.86962890625Q34.99658203125 -11.20751953125 36.791015625 -13.3095703125Q37.88818359375 -14.59130859375 39.703125 -15.3193359375Q40.11328125 -15.4833984375 40.400390625 -15.4833984375Q41.138671875 -15.4833984375 41.138671875 -14.68359375Q41.138671875 -14.2119140625 40.49267578125 -13.986328125Q39.046875 -13.48388671875 38.21630859375 -12.6533203125Q36.80126953125 -11.24853515625 36.57568359375 -9.2490234375ZM36.462890625 -3.6708984375Q36.462890625 -2.7890625 37.32421875 -1.99951171875Q37.92919921875 -1.44580078125 38.87255859375 -1.44580078125Q39.59033203125 -1.44580078125 40.55419921875 -2.173828125Q41.23095703125 -2.6865234375 41.23095703125 -3.7119140625V-5.2705078125Q41.23095703125 -6.28564453125 40.53369140625 -7.0341796875Q39.8671875 -7.751953125 38.8623046875 -7.751953125H36.462890625Z"/><path d="M54.99169921875 -3.94775390625Q54.99169921875 -3.94775390625 61.1748046875 -3.94775390625Q61.9130859375 -3.94775390625 61.9130859375 -3.158203125Q61.9130859375 -2.47119140625 61.12353515625 -2.47119140625H54.9609375Q54.2021484375 -2.47119140625 54.2021484375 -3.240234375Q54.2021484375 -3.94775390625 54.99169921875 -3.94775390625ZM57.37060546875 -12.02783203125Q57.37060546875 -12.84814453125 58.12939453125 -12.84814453125Q58.857421875 -12.84814453125 58.857421875 -11.96630859375V-9.7412109375H61.0517578125Q61.9130859375 -9.7412109375 61.9130859375 -8.99267578125Q61.9130859375 -8.28515625 61.03125 -8.28515625H58.82666015625V-6.03955078125Q58.82666015625 -5.1884765625 58.1396484375 -5.1884765625Q57.37060546875 -5.1884765625 57.37060546875 -6.01904296875V-8.28515625H55.0634765625Q54.2021484375 -8.28515625 54.2021484375 -9.0439453125Q54.2021484375 -9.75146484375 55.083984375 -9.75146484375H57.37060546875Z"/><path d="M67.82958984375 -14.0068359375Q67.13232421875 -14.0068359375 66.82470703125 -13.3916015625Q66.02490234375 -11.8125 65.65576171875 -9.77197265625Q65.4814453125 -8.818359375 65.4814453125 -7.833984375Q65.4814453125 -7.1162109375 65.57373046875 -6.40869140625Q65.87109375 -4.09130859375 66.5888671875 -2.47119140625Q67.01953125 -1.4970703125 67.8193359375 -1.4970703125Q68.58837890625 -1.4970703125 69.0498046875 -2.37890625Q69.7265625 -3.68115234375 70.06494140625 -5.95751953125Q70.20849609375 -6.931640625 70.20849609375 -7.84423828125Q70.20849609375 -8.7568359375 70.06494140625 -9.60791015625Q69.69580078125 -11.771484375 68.85498046875 -13.412109375Q68.54736328125 -14.0068359375 67.82958984375 -14.0068359375ZM67.880859375 -15.4833984375Q69.28564453125 -15.4833984375 70.02392578125 -14.396484375Q71.162109375 -12.72509765625 71.60302734375 -9.68994140625Q71.736328125 -8.77734375 71.736328125 -7.84423828125Q71.736328125 -6.85986328125 71.5927734375 -5.8857421875Q71.15185546875 -2.87109375 70.06494140625 -1.1689453125Q69.31640625 0.0 67.85009765625 0.0Q66.404296875 0.0 65.63525390625 -1.2099609375Q64.69189453125 -2.6865234375 64.1279296875 -5.83447265625Q63.9638671875 -6.7470703125 63.9638671875 -7.70068359375Q63.9638671875 -8.6953125 64.13818359375 -9.7001953125Q64.681640625 -12.82763671875 65.55322265625 -14.22216796875Q66.33251953125 -15.4833984375 67.880859375 -15.4833984375Z"/><path d="M74.8125 -2.1943359375Q75.6533203125 -2.1943359375 75.6533203125 -1.025390625Q75.6533203125 0.0 74.86376953125 0.0Q74.0947265625 0.0 74.0947265625 -1.09716796875Q74.0947265625 -2.1943359375 74.8125 -2.1943359375Z"/><path d="M81.87744140625 -14.0068359375Q81.18017578125 -14.0068359375 80.87255859375 -13.3916015625Q80.07275390625 -11.8125 79.70361328125 -9.77197265625Q79.529296875 -8.818359375 79.529296875 -7.833984375Q79.529296875 -7.1162109375 79.62158203125 -6.40869140625Q79.9189453125 -4.09130859375 80.63671875 -2.47119140625Q81.0673828125 -1.4970703125 81.8671875 -1.4970703125Q82.63623046875 -1.4970703125 83.09765625 -2.37890625Q83.7744140625 -3.68115234375 84.11279296875 -5.95751953125Q84.25634765625 -6.931640625 84.25634765625 -7.84423828125Q84.25634765625 -8.7568359375 84.11279296875 -9.60791015625Q83.74365234375 -11.771484375 82.90283203125 -13.412109375Q82.59521484375 -14.0068359375 81.87744140625 -14.0068359375ZM81.9287109375 -15.4833984375Q83.33349609375 -15.4833984375 84.07177734375 -14.396484375Q85.2099609375 -12.72509765625 85.65087890625 -9.68994140625Q85.7841796875 -8.77734375 85.7841796875 -7.84423828125Q85.7841796875 -6.85986328125 85.640625 -5.8857421875Q85.19970703125 -2.87109375 84.11279296875 -1.1689453125Q83.3642578125 0.0 81.89794921875 0.0Q80.4521484375 0.0 79.68310546875 -1.2099609375Q78.73974609375 -2.6865234375 78.17578125 -5.83447265625Q78.01171875 -6.7470703125 78.01171875 -7.70068359375Q78.01171875 -8.6953125 78.18603515625 -9.7001953125Q78.7294921875 -12.82763671875 79.60107421875 -14.22216796875Q80.38037109375 -15.4833984375 81.9287109375 -15.4833984375Z"/><path d="M88.634765625 -11.67919921875Q87.8349609375 -11.67919921875 87.8349609375 -12.39697265625Q87.8349609375 -12.62255859375 88.01953125 -12.99169921875Q88.66552734375 -14.26318359375 89.50634765625 -14.806640625Q90.55224609375 -15.4833984375 91.7109375 -15.4833984375Q93.6591796875 -15.4833984375 94.7666015625 -13.99658203125Q95.57666015625 -12.90966796875 95.57666015625 -11.65869140625Q95.57666015625 -10.5615234375 94.89990234375 -9.46435546875L89.9267578125 -1.435546875H94.787109375Q95.55615234375 -1.435546875 95.55615234375 -0.66650390625Q95.55615234375 0.0 94.71533203125 0.0H88.7578125Q87.84521484375 0.0 87.84521484375 -0.65625Q87.84521484375 -0.943359375 87.978515625 -1.15869140625L93.4951171875 -10.048828125Q94.05908203125 -10.96142578125 94.05908203125 -11.65869140625Q94.05908203125 -12.54052734375 93.4951171875 -13.19677734375Q92.80810546875 -13.99658203125 91.65966796875 -13.99658203125Q90.234375 -13.99658203125 89.3525390625 -12.31494140625Q89.01416015625 -11.67919921875 88.634765625 -11.67919921875Z"/></g></g><line x1="470.12" y1="663.88" x2="470.12" y2="750.88" stroke="#eef2f6" stroke-width="1.0" stroke-linecap="butt"/><line x1="889.88" y1="663.88" x2="889.88" y2="750.88" stroke="#eef2f6" stroke-width="1.0" stroke-linecap="butt"/><line x1="470.12" y1="759.88" x2="889.88" y2="759.88" stroke="#eef2f6" stroke-width="1.5" stroke-linecap="butt"/><polygon points="470.12,759.88 483.12,755.28 483.12,764.48" fill="#eef2f6"/><polygon points="889.88,759.88 876.88,764.48 876.88,755.28" fill="#eef2f6"/><g transform="translate(631.40,754.60)" fill="#eef2f6"><path d="M1.8251953125 -11.67919921875Q1.025390625 -11.67919921875 1.025390625 -12.39697265625Q1.025390625 -12.62255859375 1.2099609375 -12.99169921875Q1.85595703125 -14.26318359375 2.69677734375 -14.806640625Q3.74267578125 -15.4833984375 4.9013671875 -15.4833984375Q6.849609375 -15.4833984375 7.95703125 -13.99658203125Q8.76708984375 -12.90966796875 8.76708984375 -11.65869140625Q8.76708984375 -10.5615234375 8.09033203125 -9.46435546875L3.1171875 -1.435546875H7.9775390625Q8.74658203125 -1.435546875 8.74658203125 -0.66650390625Q8.74658203125 0.0 7.90576171875 0.0H1.9482421875Q1.03564453125 0.0 1.03564453125 -0.65625Q1.03564453125 -0.943359375 1.1689453125 -1.15869140625L6.685546875 -10.048828125Q7.24951171875 -10.96142578125 7.24951171875 -11.65869140625Q7.24951171875 -12.54052734375 6.685546875 -13.19677734375Q5.99853515625 -13.99658203125 4.85009765625 -13.99658203125Q3.4248046875 -13.99658203125 2.54296875 -12.31494140625Q2.20458984375 -11.67919921875 1.8251953125 -11.67919921875Z"/><path d="M17.63671875 -15.4833984375Q18.498046875 -15.4833984375 18.498046875 -14.765625Q18.498046875 -14.5400390625 18.28271484375 -13.56591796875Q18.28271484375 -13.56591796875 15.4423828125 -0.7177734375Q15.28857421875 0.0 14.73486328125 0.0Q13.9453125 0.0 13.9453125 -0.6767578125Q13.9453125 -0.8203125 13.97607421875 -0.9638671875L16.86767578125 -13.97607421875H12.27392578125Q12.27392578125 -13.97607421875 12.27392578125 -13.20703125Q12.27392578125 -12.47900390625 11.525390625 -12.47900390625Q10.81787109375 -12.47900390625 10.81787109375 -13.23779296875Q10.81787109375 -13.23779296875 10.81787109375 -14.79638671875Q10.81787109375 -15.4833984375 11.63818359375 -15.4833984375Q11.63818359375 -15.4833984375 17.63671875 -15.4833984375Z"/><path d="M21.8818359375 -2.1943359375Q22.72265625 -2.1943359375 22.72265625 -1.025390625Q22.72265625 0.0 21.93310546875 0.0Q21.1640625 0.0 21.1640625 -1.09716796875Q21.1640625 -2.1943359375 21.8818359375 -2.1943359375Z"/><path d="M26.9267578125 -0.7587890625Q26.9267578125 -1.28173828125 27.65478515625 -1.517578125Q28.669921875 -1.845703125 29.41845703125 -2.4609375Q31.22314453125 -3.96826171875 31.5205078125 -6.2138671875H29.02880859375Q27.7265625 -6.2138671875 26.67041015625 -7.12646484375Q25.388671875 -8.25439453125 25.388671875 -9.7412109375Q25.388671875 -9.7412109375 25.388671875 -11.90478515625Q25.388671875 -13.6171875 27.06005859375 -14.83740234375Q27.94189453125 -15.4833984375 29.326171875 -15.4833984375Q30.79248046875 -15.4833984375 31.9921875 -14.314453125Q33.0791015625 -13.25830078125 33.0791015625 -11.61767578125Q33.0791015625 -11.61767578125 33.0791015625 -6.90087890625Q33.0791015625 -5.38330078125 32.5458984375 -4.2041015625Q31.67431640625 -2.296875 30.52587890625 -1.40478515625Q28.68017578125 0.0 27.6650390625 0.0Q26.9267578125 0.0 26.9267578125 -0.7587890625ZM31.5615234375 -11.525390625Q31.5615234375 -12.56103515625 30.93603515625 -13.2275390625Q30.228515625 -13.97607421875 29.203125 -13.97607421875Q28.31103515625 -13.97607421875 27.5830078125 -13.3505859375Q26.8447265625 -12.71484375 26.8447265625 -11.6484375V-9.9873046875Q26.8447265625 -8.95166015625 27.685546875 -8.25439453125Q28.35205078125 -7.70068359375 29.62353515625 -7.70068359375H31.5615234375Q31.5615234375 -7.70068359375 31.5615234375 -11.525390625Z"/><path d="M42.46142578125 -15.4833984375Q43.32275390625 -15.4833984375 43.32275390625 -14.765625Q43.32275390625 -14.5400390625 43.107421875 -13.56591796875Q43.107421875 -13.56591796875 40.26708984375 -0.7177734375Q40.11328125 0.0 39.5595703125 0.0Q38.77001953125 0.0 38.77001953125 -0.6767578125Q38.77001953125 -0.8203125 38.80078125 -0.9638671875L41.6923828125 -13.97607421875H37.0986328125Q37.0986328125 -13.97607421875 37.0986328125 -13.20703125Q37.0986328125 -12.47900390625 36.35009765625 -12.47900390625Q35.642578125 -12.47900390625 35.642578125 -13.23779296875Q35.642578125 -13.23779296875 35.642578125 -14.79638671875Q35.642578125 -15.4833984375 36.462890625 -15.4833984375Q36.462890625 -15.4833984375 42.46142578125 -15.4833984375Z"/><path d="M55.5966796875 -3.94775390625Q55.5966796875 -3.94775390625 61.77978515625 -3.94775390625Q62.51806640625 -3.94775390625 62.51806640625 -3.158203125Q62.51806640625 -2.47119140625 61.728515625 -2.47119140625H55.56591796875Q54.80712890625 -2.47119140625 54.80712890625 -3.240234375Q54.80712890625 -3.94775390625 55.5966796875 -3.94775390625ZM57.9755859375 -12.02783203125Q57.9755859375 -12.84814453125 58.734375 -12.84814453125Q59.46240234375 -12.84814453125 59.46240234375 -11.96630859375V-9.7412109375H61.65673828125Q62.51806640625 -9.7412109375 62.51806640625 -8.99267578125Q62.51806640625 -8.28515625 61.63623046875 -8.28515625H59.431640625V-6.03955078125Q59.431640625 -5.1884765625 58.74462890625 -5.1884765625Q57.9755859375 -5.1884765625 57.9755859375 -6.01904296875V-8.28515625H55.66845703125Q54.80712890625 -8.28515625 54.80712890625 -9.0439453125Q54.80712890625 -9.75146484375 55.68896484375 -9.75146484375H57.9755859375Z"/><path d="M68.4345703125 -14.0068359375Q67.7373046875 -14.0068359375 67.4296875 -13.3916015625Q66.6298828125 -11.8125 66.2607421875 -9.77197265625Q66.08642578125 -8.818359375 66.08642578125 -7.833984375Q66.08642578125 -7.1162109375 66.1787109375 -6.40869140625Q66.47607421875 -4.09130859375 67.19384765625 -2.47119140625Q67.62451171875 -1.4970703125 68.42431640625 -1.4970703125Q69.193359375 -1.4970703125 69.65478515625 -2.37890625Q70.33154296875 -3.68115234375 70.669921875 -5.95751953125Q70.8134765625 -6.931640625 70.8134765625 -7.84423828125Q70.8134765625 -8.7568359375 70.669921875 -9.60791015625Q70.30078125 -11.771484375 69.4599609375 -13.412109375Q69.15234375 -14.0068359375 68.4345703125 -14.0068359375ZM68.48583984375 -15.4833984375Q69.890625 -15.4833984375 70.62890625 -14.396484375Q71.76708984375 -12.72509765625 72.2080078125 -9.68994140625Q72.34130859375 -8.77734375 72.34130859375 -7.84423828125Q72.34130859375 -6.85986328125 72.19775390625 -5.8857421875Q71.7568359375 -2.87109375 70.669921875 -1.1689453125Q69.92138671875 0.0 68.455078125 0.0Q67.00927734375 0.0 66.240234375 -1.2099609375Q65.296875 -2.6865234375 64.73291015625 -5.83447265625Q64.56884765625 -6.7470703125 64.56884765625 -7.70068359375Q64.56884765625 -8.6953125 64.7431640625 -9.7001953125Q65.28662109375 -12.82763671875 66.158203125 -14.22216796875Q66.9375 -15.4833984375 68.48583984375 -15.4833984375Z"/><path d="M75.41748046875 -2.1943359375Q76.25830078125 -2.1943359375 76.25830078125 -1.025390625Q76.25830078125 0.0 75.46875 0.0Q74.69970703125 0.0 74.69970703125 -1.09716796875Q74.69970703125 -2.1943359375 75.41748046875 -2.1943359375Z"/><path d="M82.482421875 -14.0068359375Q81.78515625 -14.0068359375 81.4775390625 -13.3916015625Q80.677734375 -11.8125 80.30859375 -9.77197265625Q80.13427734375 -8.818359375 80.13427734375 -7.833984375Q80.13427734375 -7.1162109375 80.2265625 -6.40869140625Q80.52392578125 -4.09130859375 81.24169921875 -2.47119140625Q81.67236328125 -1.4970703125 82.47216796875 -1.4970703125Q83.2412109375 -1.4970703125 83.70263671875 -2.37890625Q84.37939453125 -3.68115234375 84.7177734375 -5.95751953125Q84.861328125 -6.931640625 84.861328125 -7.84423828125Q84.861328125 -8.7568359375 84.7177734375 -9.60791015625Q84.3486328125 -11.771484375 83.5078125 -13.412109375Q83.2001953125 -14.0068359375 82.482421875 -14.0068359375ZM82.53369140625 -15.4833984375Q83.9384765625 -15.4833984375 84.6767578125 -14.396484375Q85.81494140625 -12.72509765625 86.255859375 -9.68994140625Q86.38916015625 -8.77734375 86.38916015625 -7.84423828125Q86.38916015625 -6.85986328125 86.24560546875 -5.8857421875Q85.8046875 -2.87109375 84.7177734375 -1.1689453125Q83.96923828125 0.0 82.5029296875 0.0Q81.05712890625 0.0 80.2880859375 -1.2099609375Q79.3447265625 -2.6865234375 78.78076171875 -5.83447265625Q78.61669921875 -6.7470703125 78.61669921875 -7.70068359375Q78.61669921875 -8.6953125 78.791015625 -9.7001953125Q79.33447265625 -12.82763671875 80.2060546875 -14.22216796875Q80.9853515625 -15.4833984375 82.53369140625 -15.4833984375Z"/><path d="M89.23974609375 -11.67919921875Q88.43994140625 -11.67919921875 88.43994140625 -12.39697265625Q88.43994140625 -12.62255859375 88.62451171875 -12.99169921875Q89.2705078125 -14.26318359375 90.111328125 -14.806640625Q91.1572265625 -15.4833984375 92.31591796875 -15.4833984375Q94.26416015625 -15.4833984375 95.37158203125 -13.99658203125Q96.181640625 -12.90966796875 96.181640625 -11.65869140625Q96.181640625 -10.5615234375 95.5048828125 -9.46435546875L90.53173828125 -1.435546875H95.39208984375Q96.1611328125 -1.435546875 96.1611328125 -0.66650390625Q96.1611328125 0.0 95.3203125 0.0H89.36279296875Q88.4501953125 0.0 88.4501953125 -0.65625Q88.4501953125 -0.943359375 88.58349609375 -1.15869140625L94.10009765625 -10.048828125Q94.6640625 -10.96142578125 94.6640625 -11.65869140625Q94.6640625 -12.54052734375 94.10009765625 -13.19677734375Q93.4130859375 -13.99658203125 92.2646484375 -13.99658203125Q90.83935546875 -13.99658203125 89.95751953125 -12.31494140625Q89.619140625 -11.67919921875 89.23974609375 -11.67919921875Z"/></g><rect x="470.1" y="657.9" width="76.0" height="36.0" fill="none" stroke="#eef2f6" stroke-width="1.6"/><polygon points="479.1,684.9 485.4,666.9 497.1,666.9 490.8,684.9" fill="none" stroke="#eef2f6" stroke-width="1.5"/><line x1="506.12" y1="657.88" x2="506.12" y2="693.88" stroke="#eef2f6" stroke-width="1.6" stroke-linecap="butt"/><g transform="translate(513.25,682.51)" fill="#eef2f6"><path d="M4.1923828125 -12.005859375Q3.5947265625 -12.005859375 3.3310546875 -11.478515625Q2.6455078125 -10.125 2.3291015625 -8.3759765625Q2.1796875 -7.55859375 2.1796875 -6.71484375Q2.1796875 -6.099609375 2.2587890625 -5.4931640625Q2.513671875 -3.5068359375 3.12890625 -2.1181640625Q3.498046875 -1.283203125 4.18359375 -1.283203125Q4.8427734375 -1.283203125 5.23828125 -2.0390625Q5.818359375 -3.1552734375 6.1083984375 -5.1064453125Q6.2314453125 -5.94140625 6.2314453125 -6.7236328125Q6.2314453125 -7.505859375 6.1083984375 -8.2353515625Q5.7919921875 -10.08984375 5.0712890625 -11.49609375Q4.8076171875 -12.005859375 4.1923828125 -12.005859375ZM4.236328125 -13.271484375Q5.4404296875 -13.271484375 6.0732421875 -12.33984375Q7.048828125 -10.9072265625 7.4267578125 -8.3056640625Q7.541015625 -7.5234375 7.541015625 -6.7236328125Q7.541015625 -5.8798828125 7.41796875 -5.044921875Q7.0400390625 -2.4609375 6.1083984375 -1.001953125Q5.466796875 0.0 4.2099609375 0.0Q2.970703125 0.0 2.3115234375 -1.037109375Q1.5029296875 -2.302734375 1.01953125 -5.0009765625Q0.87890625 -5.783203125 0.87890625 -6.6005859375Q0.87890625 -7.453125 1.0283203125 -8.314453125Q1.494140625 -10.9951171875 2.2412109375 -12.1904296875Q2.9091796875 -13.271484375 4.236328125 -13.271484375Z"/><path d="M10.177734375 -1.880859375Q10.8984375 -1.880859375 10.8984375 -0.87890625Q10.8984375 0.0 10.2216796875 0.0Q9.5625 0.0 9.5625 -0.9404296875Q9.5625 -1.880859375 10.177734375 -1.880859375Z"/><path d="M16.2333984375 -12.005859375Q15.6357421875 -12.005859375 15.3720703125 -11.478515625Q14.6865234375 -10.125 14.3701171875 -8.3759765625Q14.220703125 -7.55859375 14.220703125 -6.71484375Q14.220703125 -6.099609375 14.2998046875 -5.4931640625Q14.5546875 -3.5068359375 15.169921875 -2.1181640625Q15.5390625 -1.283203125 16.224609375 -1.283203125Q16.8837890625 -1.283203125 17.279296875 -2.0390625Q17.859375 -3.1552734375 18.1494140625 -5.1064453125Q18.2724609375 -5.94140625 18.2724609375 -6.7236328125Q18.2724609375 -7.505859375 18.1494140625 -8.2353515625Q17.8330078125 -10.08984375 17.1123046875 -11.49609375Q16.8486328125 -12.005859375 16.2333984375 -12.005859375ZM16.27734375 -13.271484375Q17.4814453125 -13.271484375 18.1142578125 -12.33984375Q19.08984375 -10.9072265625 19.4677734375 -8.3056640625Q19.58203125 -7.5234375 19.58203125 -6.7236328125Q19.58203125 -5.8798828125 19.458984375 -5.044921875Q19.0810546875 -2.4609375 18.1494140625 -1.001953125Q17.5078125 0.0 16.2509765625 0.0Q15.01171875 0.0 14.3525390625 -1.037109375Q13.5439453125 -2.302734375 13.060546875 -5.0009765625Q12.919921875 -5.783203125 12.919921875 -6.6005859375Q12.919921875 -7.453125 13.0693359375 -8.314453125Q13.53515625 -10.9951171875 14.2822265625 -12.1904296875Q14.9501953125 -13.271484375 16.27734375 -13.271484375Z"/><path d="M23.572265625 -12.990234375Q23.87109375 -13.271484375 24.1962890625 -13.271484375Q24.85546875 -13.271484375 24.85546875 -12.5419921875V-0.791015625Q24.85546875 -0.0439453125 24.22265625 -0.0439453125Q23.572265625 -0.0439453125 23.572265625 -0.7998046875Q23.572265625 -0.7998046875 23.572265625 -11.162109375L22.04296875 -9.6328125Q21.8056640625 -9.3955078125 21.568359375 -9.3955078125Q20.900390625 -9.3955078125 20.900390625 -9.984375Q20.900390625 -10.283203125 21.1552734375 -10.5380859375Z"/></g><rect x="699.9" y="657.9" width="111.5" height="36.0" fill="none" stroke="#eef2f6" stroke-width="1.6"/><line x1="717.88" y1="666.88" x2="717.88" y2="684.88" stroke="#eef2f6" stroke-width="1.5" stroke-linecap="butt"/><line x1="708.88" y1="684.88" x2="726.88" y2="684.88" stroke="#eef2f6" stroke-width="1.5" stroke-linecap="butt"/><line x1="735.88" y1="657.88" x2="735.88" y2="693.88" stroke="#eef2f6" stroke-width="1.6" stroke-linecap="butt"/><g transform="translate(743.00,682.51)" fill="#eef2f6"><path d="M4.1923828125 -12.005859375Q3.5947265625 -12.005859375 3.3310546875 -11.478515625Q2.6455078125 -10.125 2.3291015625 -8.3759765625Q2.1796875 -7.55859375 2.1796875 -6.71484375Q2.1796875 -6.099609375 2.2587890625 -5.4931640625Q2.513671875 -3.5068359375 3.12890625 -2.1181640625Q3.498046875 -1.283203125 4.18359375 -1.283203125Q4.8427734375 -1.283203125 5.23828125 -2.0390625Q5.818359375 -3.1552734375 6.1083984375 -5.1064453125Q6.2314453125 -5.94140625 6.2314453125 -6.7236328125Q6.2314453125 -7.505859375 6.1083984375 -8.2353515625Q5.7919921875 -10.08984375 5.0712890625 -11.49609375Q4.8076171875 -12.005859375 4.1923828125 -12.005859375ZM4.236328125 -13.271484375Q5.4404296875 -13.271484375 6.0732421875 -12.33984375Q7.048828125 -10.9072265625 7.4267578125 -8.3056640625Q7.541015625 -7.5234375 7.541015625 -6.7236328125Q7.541015625 -5.8798828125 7.41796875 -5.044921875Q7.0400390625 -2.4609375 6.1083984375 -1.001953125Q5.466796875 0.0 4.2099609375 0.0Q2.970703125 0.0 2.3115234375 -1.037109375Q1.5029296875 -2.302734375 1.01953125 -5.0009765625Q0.87890625 -5.783203125 0.87890625 -6.6005859375Q0.87890625 -7.453125 1.0283203125 -8.314453125Q1.494140625 -10.9951171875 2.2412109375 -12.1904296875Q2.9091796875 -13.271484375 4.236328125 -13.271484375Z"/><path d="M10.177734375 -1.880859375Q10.8984375 -1.880859375 10.8984375 -0.87890625Q10.8984375 0.0 10.2216796875 0.0Q9.5625 0.0 9.5625 -0.9404296875Q9.5625 -1.880859375 10.177734375 -1.880859375Z"/><path d="M16.2333984375 -12.005859375Q15.6357421875 -12.005859375 15.3720703125 -11.478515625Q14.6865234375 -10.125 14.3701171875 -8.3759765625Q14.220703125 -7.55859375 14.220703125 -6.71484375Q14.220703125 -6.099609375 14.2998046875 -5.4931640625Q14.5546875 -3.5068359375 15.169921875 -2.1181640625Q15.5390625 -1.283203125 16.224609375 -1.283203125Q16.8837890625 -1.283203125 17.279296875 -2.0390625Q17.859375 -3.1552734375 18.1494140625 -5.1064453125Q18.2724609375 -5.94140625 18.2724609375 -6.7236328125Q18.2724609375 -7.505859375 18.1494140625 -8.2353515625Q17.8330078125 -10.08984375 17.1123046875 -11.49609375Q16.8486328125 -12.005859375 16.2333984375 -12.005859375ZM16.27734375 -13.271484375Q17.4814453125 -13.271484375 18.1142578125 -12.33984375Q19.08984375 -10.9072265625 19.4677734375 -8.3056640625Q19.58203125 -7.5234375 19.58203125 -6.7236328125Q19.58203125 -5.8798828125 19.458984375 -5.044921875Q19.0810546875 -2.4609375 18.1494140625 -1.001953125Q17.5078125 0.0 16.2509765625 0.0Q15.01171875 0.0 14.3525390625 -1.037109375Q13.5439453125 -2.302734375 13.060546875 -5.0009765625Q12.919921875 -5.783203125 12.919921875 -6.6005859375Q12.919921875 -7.453125 13.0693359375 -8.314453125Q13.53515625 -10.9951171875 14.2822265625 -12.1904296875Q14.9501953125 -13.271484375 16.27734375 -13.271484375Z"/><path d="M22.025390625 -10.0107421875Q21.33984375 -10.0107421875 21.33984375 -10.6259765625Q21.33984375 -10.8193359375 21.498046875 -11.1357421875Q22.0517578125 -12.2255859375 22.7724609375 -12.69140625Q23.6689453125 -13.271484375 24.662109375 -13.271484375Q26.33203125 -13.271484375 27.28125 -11.9970703125Q27.9755859375 -11.0654296875 27.9755859375 -9.9931640625Q27.9755859375 -9.052734375 27.3955078125 -8.1123046875L23.1328125 -1.23046875H27.298828125Q27.9580078125 -1.23046875 27.9580078125 -0.5712890625Q27.9580078125 0.0 27.2373046875 0.0H22.130859375Q21.3486328125 0.0 21.3486328125 -0.5625Q21.3486328125 -0.80859375 21.462890625 -0.9931640625L26.19140625 -8.61328125Q26.6748046875 -9.3955078125 26.6748046875 -9.9931640625Q26.6748046875 -10.7490234375 26.19140625 -11.3115234375Q25.6025390625 -11.9970703125 24.6181640625 -11.9970703125Q23.396484375 -11.9970703125 22.640625 -10.5556640625Q22.3505859375 -10.0107421875 22.025390625 -10.0107421875Z"/></g><line x1="778.97" y1="657.88" x2="778.97" y2="693.88" stroke="#eef2f6" stroke-width="1.6" stroke-linecap="butt"/><g transform="translate(789.64,682.50)" fill="#eef2f6"><path d="M4.95703125 -12.7880859375Q5.115234375 -13.271484375 5.572265625 -13.271484375Q6.01171875 -13.271484375 6.169921875 -12.7880859375L10.0986328125 -0.9755859375Q10.177734375 -0.73828125 10.177734375 -0.5888671875Q10.177734375 -0.0703125 9.544921875 0.0Q9.0791015625 0.0 8.8857421875 -0.580078125Q8.8857421875 -0.580078125 7.9892578125 -3.357421875H3.1201171875L2.162109375 -0.509765625Q1.9775390625 0.0263671875 1.564453125 0.0263671875Q0.87890625 0.0263671875 0.87890625 -0.615234375Q0.87890625 -0.703125 1.072265625 -1.2744140625ZM5.537109375 -10.599609375 3.515625 -4.5966796875H7.5673828125Z"/></g><path d="M 919.87578125 571.876953125 A 66 66 0 0 0 975.87578125 537.876953125" fill="none" stroke="#eef2f6" stroke-width="1.2"/><g transform="translate(1016.34,559.25)" fill="#eef2f6"><path d="M1.73828125 -11.123046875Q0.9765625 -11.123046875 0.9765625 -11.806640625Q0.9765625 -12.021484375 1.15234375 -12.373046875Q1.767578125 -13.583984375 2.568359375 -14.1015625Q3.564453125 -14.74609375 4.66796875 -14.74609375Q6.5234375 -14.74609375 7.578125 -13.330078125Q8.349609375 -12.294921875 8.349609375 -11.103515625Q8.349609375 -10.05859375 7.705078125 -9.013671875L2.96875 -1.3671875H7.59765625Q8.330078125 -1.3671875 8.330078125 -0.634765625Q8.330078125 0.0 7.529296875 0.0H1.85546875Q0.986328125 0.0 0.986328125 -0.625Q0.986328125 -0.8984375 1.11328125 -1.103515625L6.3671875 -9.5703125Q6.904296875 -10.439453125 6.904296875 -11.103515625Q6.904296875 -11.943359375 6.3671875 -12.568359375Q5.712890625 -13.330078125 4.619140625 -13.330078125Q3.26171875 -13.330078125 2.421875 -11.728515625Q2.099609375 -11.123046875 1.73828125 -11.123046875Z"/><path d="M10.595703125 -14.00390625Q10.595703125 -14.74609375 11.4453125 -14.74609375Q11.4453125 -14.74609375 17.1875 -14.74609375Q17.998046875 -14.74609375 17.998046875 -14.04296875Q17.998046875 -13.33984375 17.2265625 -13.33984375H12.03125V-8.818359375H14.19921875Q16.083984375 -8.818359375 17.2265625 -7.412109375Q17.98828125 -6.474609375 17.98828125 -5.166015625V-3.59375Q17.98828125 -2.03125 16.923828125 -1.044921875Q15.80078125 0.0 14.443359375 0.0H11.396484375Q10.64453125 0.0 10.64453125 -0.68359375Q10.64453125 -1.376953125 11.46484375 -1.376953125H14.1796875Q15.41015625 -1.376953125 16.064453125 -2.216796875Q16.552734375 -2.841796875 16.552734375 -3.69140625V-5.166015625Q16.552734375 -6.044921875 15.9765625 -6.689453125Q15.33203125 -7.412109375 14.00390625 -7.412109375H11.30859375Q10.595703125 -7.412109375 10.595703125 -8.2421875Z"/><path d="M24.306640625 -12.783203125Q23.90625 -13.310546875 23.125 -13.310546875Q22.490234375 -13.310546875 22.01171875 -12.744140625Q21.6796875 -12.353515625 21.6796875 -11.7578125Q21.6796875 -11.123046875 22.138671875 -10.732421875Q22.6171875 -10.322265625 23.154296875 -10.322265625Q23.701171875 -10.322265625 24.296875 -10.83984375Q24.677734375 -11.171875 24.677734375 -11.806640625Q24.677734375 -12.294921875 24.306640625 -12.783203125ZM25.41015625 -13.73046875Q26.103515625 -12.958984375 26.103515625 -11.6796875Q26.103515625 -10.537109375 25.234375 -9.716796875Q24.345703125 -8.876953125 23.14453125 -8.876953125Q22.177734375 -8.876953125 21.357421875 -9.4921875Q20.244140625 -10.322265625 20.244140625 -11.69921875Q20.244140625 -13.173828125 21.25 -14.04296875Q22.060546875 -14.74609375 23.0859375 -14.74609375Q24.4921875 -14.74609375 25.41015625 -13.73046875Z"/></g></svg>